/* XPM */
static char *background[] = {
/* columns rows colors chars-per-pixel */
"64 64 256 2 ",
"   c #190D17",
".  c #14141B",
"X  c #1C141B",
"o  c #181817",
"O  c #0E0C14",
"+  c #280D0E",
"@  c #380D0E",
"#  c #240E12",
"$  c #270E18",
"%  c #340E15",
"&  c #241215",
"*  c #2B1316",
"=  c #24151B",
"-  c #2C151B",
";  c #24191D",
":  c #2C191E",
">  c #261916",
",  c #331216",
"<  c #3B1215",
"1  c #33151B",
"2  c #3B151B",
"3  c #33191E",
"4  c #3B1A1D",
"5  c #301B17",
"6  c #1B241C",
"7  c #152319",
"8  c #23241F",
"9  c #0E0C2A",
"0  c #130E24",
"q  c #120E2C",
"w  c #190E26",
"e  c #0D1526",
"r  c #1C1524",
"t  c #1C1B24",
"y  c #15132C",
"u  c #1C152C",
"i  c #161B2C",
"p  c #1C1B2C",
"a  c #151624",
"s  c #0D0C33",
"d  c #140E34",
"f  c #120D3B",
"g  c #151333",
"h  c #1B1433",
"j  c #141C34",
"k  c #1C1B34",
"l  c #15133B",
"z  c #1B163B",
"x  c #1D1A3B",
"c  c #15193B",
"v  c #0D1836",
"b  c #230E24",
"n  c #270E29",
"m  c #241424",
"M  c #2B1423",
"N  c #241A24",
"B  c #2C1B24",
"V  c #24142B",
"C  c #2C142B",
"Z  c #241B2C",
"A  c #2C1B2B",
"S  c #331523",
"D  c #3C1623",
"F  c #331B24",
"G  c #3B1B23",
"H  c #32162C",
"J  c #331C2B",
"K  c #3A1C2C",
"L  c #3B162B",
"P  c #360E34",
"I  c #241534",
"U  c #2B1633",
"Y  c #241B34",
"T  c #2B1C33",
"R  c #23133B",
"E  c #2B153B",
"W  c #241C3C",
"Q  c #2B1C3C",
"!  c #331433",
"~  c #3B1633",
"^  c #331C34",
"/  c #3B1C34",
"(  c #33143B",
")  c #331C3A",
"_  c #3C1C3B",
"`  c #290E38",
"'  c #1E2523",
"]  c #1C222C",
"[  c #1B2626",
"{  c #1D2234",
"}  c #1A2239",
"|  c #232525",
" . c #222925",
".. c #23232B",
"X. c #2C232C",
"o. c #252B2A",
"O. c #2B2D2C",
"+. c #2B2225",
"@. c #34222C",
"#. c #3B222C",
"$. c #33292F",
"%. c #372326",
"&. c #2D312E",
"*. c #232334",
"=. c #2C2334",
"-. c #262833",
";. c #2D2B33",
":. c #24233B",
">. c #2C233C",
",. c #2C2B3A",
"<. c #26293A",
"1. c #342433",
"2. c #3B2433",
"3. c #342A34",
"4. c #3B2A34",
"5. c #33243B",
"6. c #3B233B",
"7. c #342B3C",
"8. c #3B2B3C",
"9. c #333334",
"0. c #34323C",
"q. c #3B333B",
"w. c #3B3838",
"e. c #2E3035",
"r. c #430C13",
"t. c #47171C",
"y. c #551519",
"u. c #550C12",
"i. c #421B24",
"p. c #431A2A",
"a. c #491828",
"s. c #531D28",
"d. c #441532",
"f. c #431A34",
"g. c #431C3B",
"h. c #481838",
"j. c #4D1731",
"k. c #641B2A",
"l. c #42232C",
"z. c #4B242D",
"x. c #442533",
"c. c #4B2534",
"v. c #432A35",
"b. c #4C2A35",
"n. c #44253B",
"m. c #442C3B",
"M. c #4B2C3B",
"N. c #4A263C",
"B. c #552938",
"V. c #44323C",
"C. c #4A323D",
"Z. c #423539",
"A. c #51323D",
"S. c #53202B",
"D. c #642E3E",
"F. c #190E45",
"G. c #141343",
"H. c #1B1642",
"J. c #1C1A43",
"K. c #1E1A4C",
"L. c #171849",
"P. c #1D1A53",
"I. c #1B1659",
"U. c #0D0B44",
"Y. c #290E44",
"T. c #251542",
"R. c #2B1643",
"E. c #231C43",
"W. c #2B1C44",
"Q. c #2C154B",
"!. c #231C4B",
"~. c #2B1C4C",
"^. c #22154C",
"/. c #341B42",
"(. c #331B4B",
"). c #391B4B",
"_. c #371844",
"`. c #231C51",
"'. c #291955",
"]. c #351A54",
"[. c #340E42",
"{. c #1B2247",
"}. c #1E2256",
"|. c #242243",
" X c #2C2344",
".X c #2C2A43",
"XX c #24234D",
"oX c #2C234A",
"OX c #2E2A4A",
"+X c #262941",
"@X c #332543",
"#X c #3B2443",
"$X c #342B43",
"%X c #3B2B43",
"&X c #32244B",
"*X c #3B224B",
"=X c #342A4B",
"-X c #3A2C4B",
";X c #353245",
":X c #3B3344",
">X c #3A3B44",
",X c #3B324B",
"<X c #38354B",
"1X c #2B2454",
"2X c #262356",
"3X c #332C53",
"4X c #3B2D53",
"5X c #3B2C5B",
"6X c #362657",
"7X c #3D3351",
"8X c #373155",
"9X c #1B1764",
"0X c #2B1D62",
"qX c #231966",
"wX c #2F1A72",
"eX c #322864",
"rX c #421B43",
"tX c #481D47",
"yX c #511A41",
"uX c #471957",
"iX c #432343",
"pX c #432C42",
"aX c #4A2C44",
"sX c #422B4B",
"dX c #482849",
"fX c #562B48",
"gX c #443343",
"hX c #4B3344",
"jX c #443A45",
"kX c #43324B",
"lX c #4D344A",
"zX c #4B3B4C",
"xX c #463A45",
"cX c #533544",
"vX c #543749",
"bX c #442A58",
"nX c #433353",
"mX c #4B3452",
"MX c #4A3855",
"NX c #563B51",
"BX c #592D52",
"VX c #64374D",
"CX c #612E55",
"ZX c #463266",
"AX c #412C6D",
"SX c #4F1963",
"DX c #674356",
"FX c #764454",
"GX c #6F414C",
"HX c #765169",
"JX c #4B4047",
"KX c #864F6C",
"LX c #3E248A",
"PX c #543286",
"IX c #8B5786",
"UX c #A6A2A3",
/* pixels */
"UXgXqX>.oXx.a.r.O % ,XkXaX& ` R VXI T.! U S @ O d.% 1.#X=.F F 5.zX.X@X4Xm.1.^ h.1 S W.{ G = I.[ VX8 - b w G.O ` [.L.vXFXO.t # u ",
"W 8.s.Y G #XxXa s h R T.;.T _.Z B >.R m S ].=.M + $ = :.V.=.^ #.Y x.M.9.@.#.Z.#.S = , < ~.3.y.g.qXhXnXd J.#.ZXR R.e % 1.) q.O O ",
"> N G J T 3.c = d y & :.v.@...<XZ $XR.x.n.#XJ Y a e f 1 !.4.0.7.E c B XX1X&XA 6.i.$ ; # a Z V 1.J 3.*XE.W 4.~.^.- X K.= W 5.q I ",
"5. X5.K m.+XG.G.p c , ;X4XW.*XiX XJ x.C.v./ h I ~ q % J -.*X{ J z Q @Xj.#X1.D i.I 2 i.V d.k p.#.6.A.nX1X-XX.~.j 0 3 ^ m G ^ T 1.",
"pXpX7.K Q G u a 2 H.n $X] J X.iXn.5.B Z :.#X) x = y E %X) $X~.%.y i B iXD ^.J I.$ g.! X a .   L h ~.-X4.].;.G # O Q.X R.x _.oXbX",
"PXgX3.C.G 1 J.p X -XR.l u a.@.6.@X:X:.3.5.Y 3 N #.@.F I H.:XhXaXU.h U 1.v.3.A (.* =.H.H.E...P z 2 @X8.0.#.8.|.c E 4Xp ] k  XV.NX",
"DX8X..l.R % G.J.l s.5XW z G 3X:.m.4X} |.:.z U |.E.Y 3X( - W.7XM.h.N p Y A C (.1.a & | V I ;.dX-X-XpX3.=X.X: p.g W V (.I _.o zXzX",
"IX5XG W - f . v 1.v.$XZ Y c.!.,.jXZ. X3.x.W Q P.7.4 y ! W G :.V.FXnXs.:Xh I !.m @XZ 6.h.( r g.K -XJ ~.q.-Xt.f.XXD.W =.!.c u J.sX",
"h : 4X4X@X.   O . u t K h./ a.!.J.%.:X%X,.J.W.J.jXn., % z I.X.2 k.c.fXB.3 / s.J MXT t g.pXR =.g ( / 9.$X$.t.y.s.KXk.D tXu.U._.( ",
". y C *.XX8XoX. r.P.K K <.p.%XJ.> 6 J 1X;XN.XX{ k iX} , z !.q.< z l.4.$X5.M.2.Z B A B J = J ;.h l b ^.k O.D.|.#.$.J ^ ).a.O @.- ",
").( _.}.x.5.7.w.; = r N ) ;Xe.oXv.4 < h.S z.OX>XG x.'...9.6 T  Xr.. P.4.fXmXm.>X`.^ K.t.=.JXM.@.P.@.g o W !.s.jX2XF M f.J.j '.{.",
"'.T.R.p G @X8.;.;.=.T B | X.%.&.6 #.W.x B B : s._.K VXbXI.* r.y.w r.& = iXlXaXXXE.p J H.J a.XXY p.rXqX* t.k.Y a.l.@.1.SX2.1Xe p ",
"T.^.* t K.p Q .X,.W @.R = i =.oXW.|.S P.a.(.%.#.!.M.sXE.3 u q U.  q d.I N 6.$.n.-X>.iX{.+ X r A 1.F S t X _.M W.B.@.X.S 6 hXc . ",
"H.-Xz F @Xm T 2.$X@X=.=.r I W K =XgXoXA 2.Z G X.f.$Xl.#.G : b P - 4.; C _ %.gXpX%Xm.tXb.^ C ~ ~ i.m.^ A N ~ i.3.2.m.1.- @.1.T - ",
"X W J 4XY Q =XW..X*X(.# G.u ; L E } =X1X3 ^ @.. ..;.t K $XQ a I { ' M.E B <.v.2.v.bXW 4 N.g o r A K 1.v.; L ,. .M.w.K V @.K A '.",
"hXT F oX>.7.$X@X0.%XC M l 3 ,.1 x.T J 1XG Q I x 4.3./ ;.-X:.i f.w.%.u H E 6 F B >X).2.; *XW.3.;.aXF V.-X6 V J >.,XaX^ $ z J ].Z ",
"FXA 4.@X*.oXbX:.a k %XT V >.7. XcX1.=Xm.|.f.B.yXl T kXq.0.$XY =.FXG J.J F A ^.2 H.U <XaXfX)...%XNXc I 5.=.c 1.* T.E.6.k y X.A T ",
"bXX.~.8.X ^ nX5.H.z 1.T R.Q S 1.3.2.5X6.1.B 3.T.G.= n.iX>.>X+Xl.<.n.O.| E.X.3XT i W.1 A 7.8.U B m.z i o.G 1.OX[ B Q W.i B 3.3.5.",
"X n U.M I B N y *X! m R._ >.Y 3.R R Q J 1.$.Q yXn   rX@.-.>.7.>X .2. .`.[ Z.Y E R U C z J _ B 4.) Q [ A I 3.M M B Q x Q oX%Xn.:X",
"Q u Y.h c !.5.V d h B +.2.2.$XZ X E.p.J 6X2.: W d.d iX7.5.-.*.&./ 1.hX X0X6.=X.X( T L c h m ( I _ O.-. .>.B X j.d./ t.E.sXkX=.*X",
"-XgXE.s & B Z.X ` '.b H m 7.m.:X:Xc.A E.x <.Y 5.r $ w tXB E.|.v.o.vXlX-.8 6 =XZ.=.: C p * V : U W g.|.W p t.. n u f.f.x = 1 B m.",
"1.sX@.=XZ T ].R.: 4.X b { 3 T w.mXnXaX8.Y _ p N c.E.X = J.J 0./ C :X0.w.t.@ %.>X:XjX[ T A Z J 1...,.J 9.y.g Q.U p.aXB =XE I E.s.",
"#.v.$XO.$X4.; V 2 g {.8.p.g H C lXm.#.] : C - u = 1 W A 6 1 0.{.7 <.[ J.f d ( =XoXG /.W H.3 4.| O.O.1 y..Xy.X o 1 tX1.$X.Xk v.:.",
"8XB.%X,.v.:.h G %XK.!.|.{ p l >.2.nXXXT %.h g.|.vXB d.|.F A k oXcXm.Q :.E b a ].mXE.c.' } I.%X .Z.A Z / >.U a.= %XS V c.5X+.n.2.",
"1 x c.x.5.o.Z ^ MXA G ) x t x.=.uX1XzXcX6.N 6.gXHX6.E.B p A J = * c @Xm.oXr = W.KXx./.o.2.-Xx.3 1 ; 4.#X1.3.p.g.Z.- b B =.F iXM ",
"! l y t J -X=X,X4.$XK $X#X,.lX>.[ U |.5.K 5.T.jXzX-X).M : T ;X: l > i ) T.8.[ W.#.1.#.6.!.X.:XA Z ; = K :.4.K .XG N G G M '.4.> ",
"_ C k F T g.m.FXn.@X)  X^ 2.B ^ ] < c %.' d D MXpX=.|.Y x $XB J c S f ! #.1X:.cX .*Xw.>XgX,Xx.|..Xj g ^ %X=. X8.B m Z F &X*X- h ",
"W.m tXE , H $X2.8.sXrXC -Xl.O.' z ! 9Xx | h l 7XzXMX5.).@X=.= , n d h G |.|.*.iX'.CXVXeX X1X-XO.O.o.T O.zX.XoXm.E.C  XG *.-X!.k ",
"pX..G N y X =XW.8.fX.XY ^ n.>X^ T F I.G E - J.cXvXmX1.:.:.A k 2 c * S 3 6 F ;.B W 8.=X4 ^ ) i.k ,.-XY v.$X5.%XlX-X..3.W.B 8XF &X",
"'.-Xt.{.k z <.y Z m.=X;XX.s.!.} #.V.{ 2.5.C ;Xb.cXmX-X;X+X; > [ z C.t.}.7 p X.P F zXN.<XS #X~.R ' ,X6 <Xo.J 1.nXjXV.1.5.T.I g =X",
"3 C P.=XT * . q p *.F K pXw t.T.} 5 l.-Xl.: ,X$XNX4XE.=.7.r = LX4 uX .{.{.{.3.tXXXzX%.Q.$ ` G.[ i 7 l o.H.Y :X6.MXkX.Xo.6.h $ h ",
"%XJ.W.<..X,Xk >.m.*XB x.G.t.2 `.%.8 ^.G.c +X  i.FXb.B.:Xq.: g H.IXaXF |.{.B N P F 5.S.'.D = U /.w.o g Q @XhXgX:.cXC.;X4.%XN z E.",
"nX1XoX,X8.Q -.| o u B : Y G.{ E.GXl.3 I R L.9 9 d % ZXDX2.t # - UXgXXX1.@.3.A v e   hXA.5X, < 7 GXH.[.c h g.P 9   * J @X%.3 E.1.",
"sX6.sX7.5.c.q.E.J.X a a *..Xg 1 ..sXZXv } ..>XN % @ t.#. .w.f U.3 M.) G / x.MX1 9   . %.oX) '.[ #XO.6 i * ( O.h $ P S S %X5.) %.",
"f U J 2. Xv.o.|.; m m 0 > B = *.W =X6X2XJ M.I = = 1 P.h W x.M G.h K S `.J OXB , & & # 2Xq.#.O.w.`.9.XX2.bX1.L ).z b f i.J 2.8.v.",
"Y I 5.s.>.#.: C n h Y m B I !.>.&X%X7X.XM..Xi.c g * F p ..<.1.&.2.@Xn.2.4XA f 7 7 o * ;X8XW.&X6.>.o.@XZ.fX^ X K V q   J T T W | ",
"1 S G oXr k x I d T.R.X H.= y S z oX=X3Xo.<.S % y % L.M z F O.M.-Xm.4XoXF t R i g r o &.Z Y 1.1.2.2.%.p %.#XX.F k i z $X=.5.~.Q ",
"d r k 6.7.7.E.T & @XH C *.F g * r .X4.:X2..XG H.2 5XI.I [ %.V.NXNXgX3.9.B 7 o M B 7.> X A C @.6.$X:XW $.*XL B W #.3.G z U ,XzXb.",
"^ T x J g.) oX=.a l =.h T $X@X=X8.%XOX-X4.6 J ] X A W X.C S zXlXDX;X|.:.1 o 6 Z T.Y %XI V 8 -X-.pXN.|.=.>.> x XX!.' OXh C <.gX8.",
"DXkXl.3Xp m H.k OXG >.3 M h N C Z...oX3Xm.B @.} V.T =.qXf *  .lXKX0.' ~.g ^.q '.2.%X4.B W.O._. XnX7X-.7.5.G k {.$X3 z M x p *.m.",
"i.4.cXfXj.i.a.T MXW.U p.7.g 5.( Q.z 2.5.$.' J./.FX_ N 0Xa = z - P.j v.sXiX; F.s   R F *./.*.| ( R.%.7.aXe.c p J.zXQ C n t p Z G ",
"j @.v.c.8.fX5.Y t J A p x p ,.C d 7 S k 3XM.G .Xm._ E.qX% + 3.; m [ = t *.m.6X. $ h Q.I B *.:Xu , c ; iX;X:X*.*.N 1.I m z J Z.< ",
"% b W %Xm.nXM.>X2XJ.~ G X.xXV.2X} #.C k x +X!.>X>.-.S i.9XH.P.#.|.~ 7 Q.3X6X8X>XW : t Y /.,.;.XX2.T ! d.G x.=X>XG 4.XX .9.c W |.",
"+ @ d d.@XCXm.Q 1.B i.V p.T W.XX .E.).U ^ J ' Q B.O.1XqX5.=.e ; @.G.7 p /.1X9..X,.7.~.N +.4 l.O.' %.2.G / G Q |.'.T N.pXK.M < * ",
"h g L N N n.@X6.-X@.Q 3 y g G.`.#XY : k : ( _ -.m.,.W.1 7 9.0 f g 7 o c } <.sX.X<.<.%.Q E 6 1.1X:.=.Z W.Y i.,.@.E.v.v.F ; $ s w ",
"S 7.L 1 r E.C.aXb.pXf.8XP.A C _ E.V.J.E.C k p.7.n.$X@XU :.pXx [ - 5XH.Y @XE.:.#.;X$X_ |.7 ) *.l.9.:Xl.i.W.a.a.1.J %X@.3.S ; $ d ",
"H.k $.f.h.| v.g.3.4X: K.-Xr z V ) Z 2.m.1 * oX| =Xw.:.1 ;.W o.J.3 {...3.*.k =X*.,.@X| 7 i x M , 2 { x.0XF N z.! B ;.Y ^ =XU y C ",
"V.W.N X m : - ^ gX) @.I l.W .X|.m.F ,X-XN h _ J nXsXQ C H.^ U { C..X@.oXOXpX8.-.<X;XJ n d B 4.M x.3 J #XT N Y W v.4.F O.0.@X] ~ ",
"FX^ z A Y ' J.* h H ;X8.2.:.] OXNXH k |.5.! 3., H I 4.] H.J A @.FXi.2.%X...XgX^ 7 W pX!.= T 4.5.NX5.@Xm.Q rXa.g.z X.pXm.-X3./  X",
"<.m.oXJ W |.V.k * F : Y 7.4.h T =XI p <.p.Y #Xi B T u g G %X1.#.$.O.X.%X6 W 7X@Xi z g..X~ oXJ o.4.2.sX5.2.E.0.B l : >.v.;.nX=...",
"^ g.K ! F -X:.E S W = T.(.E.p 4.W.^ T.B Y %XJ J G J X >.7.sXv.>XX Y.` E ] p U n *XX V 4 2.@XG .Xq U E.2.>.3.) / f 0 H W.T ;.4.nX",
"p.oXcXQ W.:.%X3.z E A M E I u c Q 1.Q W J F , y S h p T 7.-X@X>.A E ` V Z W $XC n C F O.h.iX$XT $ W F ^ 5.8.B Q r n 6.7.;.E....X",
"T lXlX/ B {.8.b.:.3 h X V r = V Q ^ J (.A N R $ z ).r J.( d.B v.sXM.W.  & 6 7XH C Q.g d.- m.;X:X:X3.Q N T X.*.2.g * a T J W +.2.",
"j.5XfXq.J n %.b.Z.A.: x r W A 5.W 5.6.V.& y ~ Q./ v.W q.1 5 : @.N.4.oX%XW k (.x H.#X& u . 6 ^ 7XmXxX%X.XE.T I X %.B a = Z N @X~.",
"0 Z K W w + - =X%.> F A I.p OXF l.l.r T <.C = o C T.>.3.>.p l.F z.-X6X=.=X$.K - t 2 ( $Xh.C J 6 8X7X*XJ.Y L d.k - 3 B E.; m 7.g ",
"vX8.!.J ( @ I G M.%.*X6 G x v.W q.Y I p ,.Q h W 7.B D z.;XJ @.x.gX4.m.=Xv.Q C ] ;XT /./.N B Q. XsXjX .[ J i ; { V.f.M W U V W.#.",
"j.yX4.M.6.o ] G FXq.B  .#.8.6.F I p 8.bX<.7.^ i.Z.H y B .XW |.o D & 2.2.1.A A @.jXN N 6.B & #.O.].O.JXcXiXZ dXgXHX>.!.i.T.A |.& ",
". . - F F v.Z ^ 3.1.Q W Y %.q.|.} x Q } W 7.-.=.@.h F h 2 C 7.< 2 . I - B -X=X7X7.5._ sX=.@.V.6.T.6 <.3.~ iX= cXNX=Xp.D } ~.>X& ",
"m d X X Z @.<.:XF 5.m.4Xq.C.5.2.5.} g E.%X<. X4.M p k F 2.#.{ < I.U r ;  XA sXFX8. X^ =.:.3Xk z F * - : N ! + xXm.*.W.U Z 2.0X. ",
"j m J.3 } F ..6X'.8.PX X;.6.x.l.oX<.^ >.zX$X.XgXE.U 5.J A dXQ B wX; V r ! X =X7.7.5.^ t $X&X XD I } z C ^ P X gXcXjXn.) 6.@.S 1 ",
"I V l t M R.X.Z m 4X7.J.r i.h 2 ;.$X} n.6.,.-XgX-XZ 3.T A 8.: oXgXx Q : y ~ 5XT %XfX<X{.k =X,XW J 3 k B Z & J.5XvXzX3XJ J E.x S ",
"* sX7 I m ; O.h r jXAX=XG @XT g t 8.k 7XQ x >.lXjXdX=.@.6 : * =XrX-XF } A d 1.i B fX$X:X,.Z p z E.xXp X.#.- :X5XmXvX4Xq.|.F x r.",
"g 1 z M i ] 8.b k hXY V H.G.k (.h . X ) ! (.gXn.mXhX,.=.1.a n z u t (.$Xp g + w J h.F i.OXG.t.N I.6 =.BX.X} ;X4XNX4X/ z.&.j . s.",
"KX7.3 A ..A Y b Z 6X7.E.! j L./.:X0 y W.iXhXlX@.C.VXV.8.%X; u _ M.p B @.6.;X{ #.M.iXi.#., r.J.Y s.g.X _.j :.e p GXsX=XV.5Xr o y."
};
