/* XPM */
static char *collect[] = {
/* columns rows colors chars-per-pixel */
"64 64 117 2 ",
"   c #D6AF17",
".  c #D7B017",
"X  c #D9B217",
"o  c #D7B118",
"O  c #DAB31A",
"+  c #DCB722",
"@  c #DEB924",
"#  c #DBB72B",
"$  c #DEBA2B",
"%  c #DEBC34",
"&  c #DFBE3A",
"*  c #E0BB27",
"=  c #E1BC2C",
"-  c #E1BE33",
";  c #E0BF3A",
":  c #E3C135",
">  c #E3C23C",
",  c #DFBF40",
"<  c #E4C443",
"1  c #E8C744",
"2  c #E9C846",
"3  c #E4C54B",
"4  c #E7C84C",
"5  c #E9CA4B",
"6  c #E3C652",
"7  c #E6C954",
"8  c #EBCD54",
"9  c #E2C75D",
"0  c #E6CA5B",
"q  c #EACD5B",
"w  c #EED057",
"e  c #EED15B",
"r  c #F0D35E",
"t  c #DEC76B",
"y  c #DEC86E",
"u  c #DFCA79",
"i  c #E0C661",
"p  c #E6CC63",
"a  c #E9CE64",
"s  c #E4CC6D",
"d  c #E8CF6A",
"f  c #EDD264",
"g  c #ECD26C",
"h  c #F1D564",
"j  c #F1D66A",
"k  c #F4D96D",
"l  c #E3CD74",
"z  c #E2CD7A",
"x  c #E7D074",
"c  c #ECD473",
"v  c #EFD876",
"b  c #E6D17E",
"n  c #ECD67B",
"m  c #EFD87C",
"M  c #F0D772",
"N  c #F5DB73",
"B  c #F8DE77",
"V  c #F3DC7B",
"C  c #F8DF7A",
"Z  c #F7E07E",
"A  c #F9E17D",
"S  c #E2CE83",
"D  c #E4D183",
"F  c #ECD782",
"G  c #EED984",
"H  c #E5D38C",
"J  c #E9D68D",
"K  c #EEDA8C",
"L  c #F2DC84",
"P  c #F1DD8C",
"I  c #E6D594",
"U  c #EEDC93",
"Y  c #E7D799",
"T  c #E7D89C",
"R  c #ECDC9B",
"E  c #F1DE93",
"W  c #F0DF9A",
"Q  c #F7E083",
"!  c #F9E283",
"~  c #F7E28C",
"^  c #F8E38A",
"/  c #F6E294",
"(  c #F8E391",
")  c #F2E19B",
"_  c #EADCA4",
"`  c #EBDEAA",
"'  c #ECDFB0",
"]  c #EFE0A5",
"[  c #EEE1AD",
"{  c #F3E3A4",
"}  c #F3E5AB",
"|  c #EDE2B4",
" . c #EFE4BB",
".. c #F3E6B3",
"X. c #F5E8B5",
"o. c #F1E6BB",
"O. c #F5EABB",
"+. c #EFE6C0",
"@. c #F0E7C2",
"#. c #F5ECC4",
"$. c #F8EEC7",
"%. c #F6EDCB",
"&. c #F8EFCC",
"*. c #F8F0CE",
"=. c #F4EED5",
"-. c #F5EFD9",
";. c #F7F0D3",
":. c #F8F1D3",
">. c #F6F1DC",
",. c #F9F3DB",
"<. c #F7F3E1",
"1. c #F9F5E4",
"2. c #FAF7EA",
"3. c #FBF8ED",
"4. c #FCFAF4",
"5. c #FEFEFD",
"6. c None",
/* pixels */
"6.6.6.6.6.6.6.6.6.6.6.6.6.6.6.6.6.6.6.6.6.6.6.6.6.6.6.. X . X . . . X . . 6.6.6.6.6.6.6.6.6.6.6.6.6.6.6.6.6.6.6.6.6.6.6.6.6.6.6.",
"6.6.6.6.6.6.6.6.6.6.6.6.6.6.6.6.6.6.6.6.6.6.. o . X . X X X X X X X . . X X . . . . 6.6.6.6.6.6.6.6.6.6.6.6.6.6.6.6.6.6.6.6.6.6.",
"6.6.6.6.6.6.6.6.6.6.6.6.6.6.6.6.6.6.6.6.X . X o o X X X X X X X X . X X . X X X X . . . 6.6.6.6.6.6.6.6.6.6.6.6.6.6.6.6.6.6.6.6.",
"6.6.6.6.6.6.6.6.6.6.6.6.6.6.6.6.6.. . . . . X X + $ 3 x K } O.*.&.#.} U x 3 % + O X X o X X . 6.6.6.6.6.6.6.6.6.6.6.6.6.6.6.6.6.",
"6.6.6.6.6.6.6.6.6.6.6.6.6.6.6.6.. . . . o O > x ) #.:.<.1.3.4.4.4.4.4.3.<.,.$.) x , O o X X . o 6.6.6.6.6.6.6.6.6.6.6.6.6.6.6.6.",
"6.6.6.6.6.6.6.6.6.6.6.6.6.6.  . o o o # 7 U ..#.%.=.,.<.1.3.3.3.4.3.3.1.1.,.;.&.%.X.) 7 $ O X o X . 6.6.6.6.6.6.6.6.6.6.6.6.6.6.",
"6.6.6.6.6.6.6.6.6.6.6.6..   . X . O 0 K ..X.O.$.#.&.:.,.,.1.3.3.3.3.2.<.,.,.;.&.%.O.O.X.U 0 O o X . X . 6.6.6.6.6.6.6.6.6.6.6.6.",
"6.6.6.6.6.6.6.6.6.6.6.. . X X O < F ] } | X.O.#.&.&.:.:.,.,.1.1.1.1.1.,.,.:.:.&.#.O.O.X.} ] K < O O X X . 6.6.6.6.6.6.6.6.6.6.6.",
"6.6.6.6.6.6.6.6.6.6.o o X X + 0 K W ] { } X.X.O.#.&.&.:.:.,.,.,.1.,.,.,.:.:.*.$.#.O.X.X.} { ) K 9 @ X X . . 6.6.6.6.6.6.6.6.6.6.",
"6.6.6.6.6.6.6.6.6.. X X X $ l K U R ) { } ..X.O.O.#.&.*.:.:.%.| X.....:.*.*.#.#.O.O.X.} [ { W R U x $ X X X X 6.6.6.6.6.6.6.6.6.",
"6.6.6.6.6.6.6.6.. . . X % g F L K R ) ] { ..X.O.O.#.#.%.&.*.o.+.>.=.S *.*.$.#.#.O.X.} } { ) ) W K G x % O X . . 6.6.6.6.6.6.6.6.",
"6.6.6.6.6.6.6.X . X X % l n F K K E W ) { { } X.O.O.X...] _ T -.5.2.u R [ X.O.O.X.X.} { { ) U U K K F c % X X X . 6.6.6.6.6.6.6.",
"6.6.6.6.6.6.X . X X $ a x b n G K K W W { { { } W D D T  .%.<.4.5.5.<.@.` D D U } } } { ) ) E K G G n c g % X X . . 6.6.6.6.6.6.",
"6.6.6.6.6.6.. X X # 0 d x v n F G P E ) ) { { z S o.<.3.4.5.5.5.5.5.5.4.4.2.+.z n } { ) ) / E P G F n x x 9 + . X X 6.6.6.6.6.6.",
"6.6.6.6.6.. . . O 6 p d g v n m G P P E ) / b | 3.5.5.5.5.5.5.5.5.5.5.5.5.5.5.2._ l ) ) ) / K K F n n x d d 7 O X X . 6.6.6.6.6.",
"6.6.6.6.6.. X X & 9 p d d x v n L F P E F l | 4.5.5.5.5.5.5.5.5.5.5.5.5.5.5.5.5.3.I z ) P P L G m m c g f a p > O X X 6.6.6.6.6.",
"6.6.6.6.. . X $ 3 0 0 p g g c c m F L K s  .5.5.5.5.5.5.3.>.=.4.4.5.>.1.5.5.5.5.5.2.I l ~ P G m m c g g d p 0 6 $ X X o 6.6.6.6.",
"6.6.6.. . .   < 6 7 0 p f g g c n V F n D 2.5.5.5.5.4.%.T H U >.5.2.y H %.4.5.5.5.5.=.t G L F m m c g f f q 0 6 < O X X . 6.6.6.",
"6.6.6.. X X # < 3 6 7 0 p f g c v V v s %.5.5.5.5.>.I s n / R =.5.1.l F t _ 3.5.5.5.4.T m F m v v g g f 0 0 7 6 < $ X X . 6.6.6.",
"6.6.6.. X O % < 3 3 7 8 q f f g c v g H <.5.5.5.3.H K / ) ) W =.5.1.l ) E H ` 5.5.5.5.%.x V v v c g f 0 q 7 7 3 < , O O X 6.6.6.",
"6.6.o X X + > > < 2 7 7 q a f f g v d _ 4.5.5.4.| x / / / / U =.5.1.l / / ~ y 2.5.5.5.<.H c v N g f f 0 q 4 3 3 , > @ O X X 6.6.",
"6.6.X X X % & > < 1 3 7 8 q q f f c i | 5.5.5.2.D F ~ / / / / =.5.1.s / / ~ x | 4.5.5.4._ p g g f f w q 8 4 2 3 > > - O X X 6.6.",
"6.  X X O $ % ; > 1 1 3 8 q e f j j 0 @.5.5.5.2.l ^ ~ ~ ~ / E =.5.1.l ( / ~ G H 3.4.<.>.T a k j f f 8 8 7 2 < < > : = O X X . 6.",
"6.. X X + $ $ - > > < 2 8 8 e f h g 0  .5.5.5.2.b Q ^ ^ ~ ~ P =.5.1.s ^ ~ ^ ^ s ` I H l p g k j f f q q 2 3 < > : : * @ X X X 6.",
"6.. X X @ * = = : > 1 5 5 w e e f j 0 [ 5.5.5.4.I x ! ^ ^ ^ P =.5.1.s ~ ^ ^ ^ v b c V C V k k g r r w 8 8 5 2 > : $ * @ X X X 6.",
"6.. X X O O = - : > 1 2 5 w e e h j f H 2.5.5.5.>.z Q ! ^ ^ L ;.5.1.d ! ! ! Q Z C C N N N j j f f w w 8 2 2 > > : : * @ O X X 6.",
"6.X X X O @ * = : > < 1 5 w w r h h g l %.5.5.5.5. .b d Q ^ L =.5.1.g Q ! ! Q Z A C N N N k j h r r w 8 5 2 > > : = * O O X X 6.",
"o X O X X @ * * : > 1 2 5 5 w r r j j h I 4.5.5.5.5.<.I F n n =.5.1.p ^ ! ! Q C A N A N k g j h r w w w 2 2 > : : * * O O X X X ",
"X X O O O @ * : : > > 5 5 w w w r h h k 7  .4.5.5.5.5.4.<.[ I <.5.2.p ^ Q Z Z A A B N N k j j h r w w w 2 2 > > : @ * O O O O X ",
". X O O @ * @ : : > > 5 5 w w r r h h k f s  .4.5.5.5.5.5.5.5.5.5.3.H n m C Z A A N N k k k h h r w 8 5 2 1 > > : : * * O O X X ",
". X X O @ = * = : > > 2 5 8 w w r h h k k g 9 ` >.5.5.5.5.5.5.5.5.5.4.2.+.T l p V N N k k k h r r w w 5 5 2 : : : @ * * * X X X ",
". X X + @ = = - : : > 5 2 8 w w r r j k k N k d z ..>.4.5.5.5.5.5.5.5.5.5.4.<._ x e N k k k h r r w w w 2 2 > : : : * : O X X X ",
". . . $ $ = - - > > > 2 5 8 w w r h h k k k k N A v l R #.<.4.5.5.5.5.5.5.5.5.5.2.I 9 N k k h h r w 8 5 2 > > > : : - $ $ X X X ",
". X X @ = - - > > > > 2 5 8 8 w r r h h k k B N N N V k n J | 3.5.5.5.5.5.5.5.5.5.3._ i h k h h r w w 5 5 1 1 1 > : : - @ X X X ",
". X X $ - ; > > > 2 2 5 5 8 w w r r k k k B B N A B A A Z Z L =.5.4.| %.<.5.5.5.5.5.4.T a j h r r w w 2 5 5 2 1 > > > % $ X X X ",
". . X $ - ; ; < 2 5 5 5 5 8 w e r r h h k k N k B A A A A A L =.5.<.9 x H | >.5.5.5.5.>.z w h r r w w 8 8 5 2 < < > > % = O X X ",
". X X @ & > < 3 2 5 4 7 8 q w w r h h k j N N N k A A A A A Q ;.5.1.a Z Q f u =.4.5.5.5.| 0 h h r w w w 8 8 5 2 < < > , @ O X X ",
"6.X . + & < < < 5 5 8 8 q q e h h h k k k k N A A A A A A A L ;.5.<.d Z Z Z g l <.5.5.5.>.l f h h e q w 8 5 8 5 3 3 < > O O X 6.",
"6.X X X > 3 3 2 7 5 7 q w e f f h j k k N N N N N A A A Z ! L =.5.1.i Z Z Z Z g _ 4.5.5.2.I j j f h f w q q q 7 5 3 3 < O X X 6.",
"6.X X X ; < 3 7 7 8 q q e f f h j k f h x l b p Z C A Z Q Q P =.5.1.a ^ Q Q C V z 5.5.5.4.` c j j f f f e q 8 7 6 4 3 > O X X 6.",
"6.X X X % 3 6 6 q 0 q q f f g j c g y T ..=.3.z V C ^ Q Q Q L ;.5.1.d ^ Q Q L L s 5.5.5.5.| v j M j f f f q 0 q 7 6 3 % X X o 6.",
"6.o X X + 3 6 7 0 q q f g g g M N V | 5.5.5.4.T m ^ L ^ ^ ~ P :.5.1.d L ^ ^ ! ! s 4.5.5.5. .V c M c g f f f q 0 0 7 3 @ X X X 6.",
"6.6.X X O < 9 0 0 a a f g g c c c n T 4.5.5.5.+.G ~ ~ ^ ( ( ~ =.5.1.s ~ ~ ~ ~ L z 5.5.5.5.| V n V c c g g f a f 0 0 3 X X X 6.6.",
"6.6.o X X $ 0 0 0 p g g g v c V C m H <.5.5.5.2.z L ( ( / ( E =.5.<.l / ( ( / L I 4.5.5.4.` m V V v c v g s a a 0 0 - X X X 6.6.",
"6.6.6.X X + 3 p a g g g c c n n V L l =.5.5.5.4. .y ) / ( ) U =.5.1.s ) ( / P l %.5.5.5.2.I G L n m n v g g g d p 6 @ X X 6.6.6.",
"6.6.6.X X X % p a g g x c m m V G F l ' 4.5.5.5.4.D s ) { ) R =.5.1.x ) ) ) l T 4.5.5.5.=.l G L V m n v c x g d f - X X X 6.6.6.",
"6.6.6.o X X X 0 g s c c n V F L L P F z >.5.5.5.5.1.I x / { R -.5.1.z { / l I 3.5.5.5.4.` l P P L F F n v c x g 0 X X X X 6.6.6.",
"6.6.6.6.o X X % a x c b n n G G K P P n ` 4.5.5.5.5.3._ b J R =.5.1.l I F ` 2.5.5.5.5.-.u F ~ K L G L n n v c s % X O X 6.6.6.6.",
"6.6.6.6.6.X X X 3 x c n F G G P K U ) U y #.4.5.5.5.5.5.<.| _ 2.5.4._ | <.5.5.5.5.5.3.H K ) U ~ P K G F n n c 3 X . X 6.6.6.6.6.",
"6.6.6.6.6.X X X O a b n F L K P / U ) / U D =.5.5.5.5.5.5.5.5.5.5.5.5.5.5.5.5.5.5.4.` x ) W ) ) E K K G F n a + X X X 6.6.6.6.6.",
"6.6.6.6.6.6.. X X $ s F G K K U E W ) ) { U u @.4.5.5.5.5.5.5.5.5.5.5.5.5.5.5.5.3.Y D { { ) ) U E E K G F x $ X X X 6.6.6.6.6.6.",
"6.6.6.6.6.6.. o X O - n K K U U ) ) ) { { } R b _ =.4.5.5.5.5.5.5.5.5.5.5.5.4.#.I b { { { { ) ) U U K K n % O X X X 6.6.6.6.6.6.",
"6.6.6.6.6.6.6.o . X X > n U U U ) ] { { { } ..X.U S I | %.2.5.5.5.5.5.3.>.| I u ] X.} } { { ) W ) R U F & O X X X 6.6.6.6.6.6.6.",
"6.6.6.6.6.6.6.6.. . X X & n R R ) { { } } X.X.X.X...} _ T T ` <.5.4.Y T T R { ..X.X.X...} } { { ) W n > X X X X 6.6.6.6.6.6.6.6.",
"6.6.6.6.6.6.6.6.6.. . X O $ n R ] { } } } X.X.O.O.#.#.#.$.$.X.=.5.2.D #.$.#.#.O.O.X.X.X...} ] { ) n % O X X X 6.6.6.6.6.6.6.6.6.",
"6.6.6.6.6.6.6.6.6.6.X . X X @ a W { } X.X.O.O.O.#.#.$.*.*.*.O.=.5.<.H &.*.$.*.#.#.O.X.X.....} ) i @ X X X X 6.6.6.6.6.6.6.6.6.6.",
"6.6.6.6.6.6.6.6.6.6.6.. . X X O 3 K [ X.X.O.#.#.#.&.*.*.&.:.o.=.5.<.D :.*.*.#.$.#.O.O.X...X.U 3 O X X X X 6.6.6.6.6.6.6.6.6.6.6.",
"6.6.6.6.6.6.6.6.6.6.6.6.. . X X O O 0 R X.O.O.#.&.&.*.:.;.>.#.=.5.2.H ,.:.:.*.*.*.#.$.O.W 0 O X O X X X 6.6.6.6.6.6.6.6.6.6.6.6.",
"6.6.6.6.6.6.6.6.6.6.6.6.6.6.X X X X X $ 0 ) O.&.&.&.:.:.,.,.X.H T H I ,.,.:.:.%.%.O.) 7 $ O X X X X 6.6.6.6.6.6.6.6.6.6.6.6.6.6.",
"6.6.6.6.6.6.6.6.6.6.6.6.6.6.6.6.o X o X X O > x ) #.:.,.,.<.,.1.<.<.,.<.,.:.%.W x < O O X O X . 6.6.6.6.6.6.6.6.6.6.6.6.6.6.6.6.",
"6.6.6.6.6.6.6.6.6.6.6.6.6.6.6.6.6.X . X X X X O + % 3 d K { X.O.X.X.{ K x 2 % + O X X X X X X 6.6.6.6.6.6.6.6.6.6.6.6.6.6.6.6.6.",
"6.6.6.6.6.6.6.6.6.6.6.6.6.6.6.6.6.6.6.6.X X X X X X X . X X X X o X O X X X X . X X X X 6.6.6.6.6.6.6.6.6.6.6.6.6.6.6.6.6.6.6.6.",
"6.6.6.6.6.6.6.6.6.6.6.6.6.6.6.6.6.6.6.6.6.6.. . X X . X . X X X O . X X X X . X X X 6.6.6.6.6.6.6.6.6.6.6.6.6.6.6.6.6.6.6.6.6.6.",
"6.6.6.6.6.6.6.6.6.6.6.6.6.6.6.6.6.6.6.6.6.6.6.6.6.6.6.. . X X . . X X X X 6.6.6.6.6.6.6.6.6.6.6.6.6.6.6.6.6.6.6.6.6.6.6.6.6.6.6."
};
