/* XPM */
static char *_9b03009558a46f4f18fd0b9f412b74e7fzmqUNQskQq5QQU[] = {
/* columns rows colors chars-per-pixel */
"64 64 256 2 ",
"   c #050200",
".  c #0B0401",
"X  c #0C0A03",
"o  c #0C0509",
"O  c #0D0A0A",
"+  c #060902",
"@  c #130501",
"#  c #1A0501",
"$  c #140B04",
"%  c #1B0C04",
"&  c #140C09",
"*  c #1B0D0A",
"=  c #16060A",
"-  c #141105",
";  c #1B1106",
":  c #15110B",
">  c #1C130B",
",  c #1E180C",
"<  c #170E12",
"1  c #1D1411",
"2  c #1E1912",
"3  c #181515",
"4  c #0C0F0A",
"5  c #220401",
"6  c #220C03",
"7  c #2A0C00",
"8  c #210D0A",
"9  c #2A0802",
"0  c #330E00",
"q  c #380E00",
"w  c #231304",
"e  c #2A1203",
"r  c #22140B",
"t  c #2A150B",
"y  c #24190D",
"u  c #2B1A0D",
"i  c #2C1A01",
"p  c #331201",
"a  c #3C1502",
"s  c #361A03",
"d  c #3E1A01",
"f  c #341B0C",
"g  c #231512",
"h  c #2A1511",
"j  c #241B12",
"k  c #2B1C14",
"l  c #251C19",
"z  c #2C1D1A",
"x  c #271418",
"c  c #311E15",
"v  c #331F1A",
"b  c #3A1D16",
"n  c #230F13",
"m  c #372209",
"M  c #2C2114",
"N  c #2D231B",
"B  c #242014",
"V  c #322215",
"C  c #34241B",
"Z  c #3B251C",
"A  c #36291D",
"S  c #3A291D",
"D  c #3C2313",
"F  c #2B210E",
"G  c #332421",
"H  c #352A21",
"J  c #3B2B23",
"K  c #3D2823",
"L  c #3B3124",
"P  c #2F2120",
"I  c #441B02",
"U  c #511C13",
"Y  c #482504",
"T  c #572704",
"R  c #5B3704",
"E  c #442718",
"W  c #592B18",
"Q  c #50360F",
"!  c #643600",
"~  c #693817",
"^  c #7A3919",
"/  c #732E0B",
"(  c #422D23",
")  c #412E2A",
"_  c #413223",
"`  c #433329",
"'  c #4A372A",
"]  c #553629",
"[  c #4E3A34",
"{  c #582D27",
"}  c #6B3A23",
"|  c #753B23",
" . c #4D4C00",
".. c #5A5602",
"X. c #555C13",
"o. c #504D08",
"O. c #774A03",
"+. c #675700",
"@. c #7A5505",
"#. c #755317",
"$. c #644608",
"%. c #5D6303",
"&. c #576B18",
"*. c #656308",
"=. c #736910",
"-. c #7C4327",
";. c #785225",
":. c #4F752F",
">. c #6C7A2F",
",. c #4E4130",
"<. c #8C1500",
"1. c #8D1C00",
"2. c #921600",
"3. c #941B00",
"4. c #9B1B01",
"5. c #9C1C0C",
"6. c #9C1505",
"7. c #9B1D10",
"8. c #A21D0C",
"9. c #A21909",
"0. c #A21D13",
"q. c #A61E16",
"w. c #8B2803",
"e. c #952200",
"r. c #9B2300",
"t. c #9D2A00",
"y. c #962904",
"u. c #853202",
"i. c #8A3503",
"p. c #8A370B",
"a. c #9B3400",
"s. c #933900",
"d. c #9A3B00",
"f. c #923407",
"g. c #8B3512",
"h. c #853A14",
"j. c #8C3B14",
"k. c #843C1B",
"l. c #873818",
"z. c #933413",
"x. c #963A16",
"c. c #962E13",
"v. c #A22300",
"b. c #A32C00",
"n. c #A72909",
"m. c #A43400",
"M. c #AC3303",
"N. c #AC3C00",
"B. c #A63A03",
"V. c #B33C02",
"C. c #A82515",
"Z. c #AD3413",
"A. c #843F21",
"S. c #8B5905",
"D. c #83431D",
"F. c #88581A",
"G. c #91550D",
"H. c #A94600",
"J. c #B34400",
"K. c #B44B01",
"L. c #BB4C01",
"P. c #B94600",
"I. c #AA5602",
"U. c #B85203",
"Y. c #B45015",
"T. c #876600",
"R. c #9A7B05",
"E. c #946C0B",
"W. c #A57804",
"Q. c #B77C15",
"!. c #B0711B",
"~. c #854427",
"^. c #925328",
"/. c #917126",
"(. c #B37C28",
"). c #AC7D2D",
"_. c #A15227",
"`. c #C45B02",
"'. c #CA5C04",
"]. c #C4510F",
"[. c #CB6302",
"{. c #C96602",
"}. c #D66A04",
"|. c #DA7815",
" X c #D46E10",
".X c #E57A0C",
"XX c #E4791A",
"oX c #D66A25",
"OX c #D4722B",
"+X c #E77B26",
"@X c #6D8838",
"#X c #77954A",
"$X c #688D4B",
"%X c #AA820A",
"&X c #B68B17",
"*X c #AC8517",
"=X c #B28A2B",
"-X c #9D852D",
";X c #D49A18",
":X c #D28510",
">X c #E7830A",
",X c #FC9D03",
"<X c #FE9D0A",
"1X c #F49808",
"2X c #EA8415",
"3X c #FB9515",
"4X c #FD9C13",
"5X c #F5931B",
"6X c #FD9C1B",
"7X c #F79417",
"8X c #F29014",
"9X c #D4A119",
"0X c #ECA40D",
"qX c #FDA202",
"wX c #F3A30D",
"eX c #FDA30B",
"rX c #F9A504",
"tX c #ECA413",
"yX c #E9A71A",
"uX c #F3A112",
"iX c #FEA314",
"pX c #FDA813",
"aX c #FEA31B",
"sX c #F6AA1D",
"dX c #D79828",
"fX c #CB9534",
"gX c #D79838",
"hX c #E88326",
"jX c #F78C28",
"kX c #E79725",
"lX c #FC9624",
"zX c #FD9B24",
"xX c #F99928",
"cX c #FC9837",
"vX c #E9963B",
"bX c #DCA22A",
"nX c #D2A739",
"mX c #EDAB2D",
"MX c #E8A725",
"NX c #FDA223",
"BX c #FDA52D",
"VX c #F6A928",
"CX c #E9A636",
"ZX c #F7A635",
"AX c #F2B026",
"SX c #869B49",
"DX c #829A55",
"FX c #AC8540",
"GX c #86A866",
"HX c #92AC55",
"JX c #CF984C",
"KX c #D8AC48",
"LX c #D5AD55",
"PX c #E5A543",
"IX c #F3A545",
"UX c #E0AF60",
/* pixels */
"* * l l = > : O $ @ @ . . $ $ > k r h h % @ @ # @ % % @ . > r % % # z n . > ; y ' b z v 8 8 h h b 6 t # = o # # * . X X - - : : ",
"= g 1 = $ : O   & & . . > r $ M > $ k 8 * r % j r r * @ X $ & @   $   @ g g y ,._ % t ' r C [ C v C w V v P K g * .     X X $ X ",
"$ $     X   X X O   = H N k r > J J c % w ; , ; g g r > O   @ . X X   $ * k S _ w w _ V t [ c % = j J w 6 E u ; > &     .   . o ",
"          + > : . > @ = z k % k t u f c k N > @ ; r * , : + = > $ +   O   @ y i w _ S w C C % g l > H u p 7 % $ - 4 o       = < ",
"$ $ X - ; : $   . $ $ @ * z u # w w D V r > ; & 1 > @ & :   $ &     O 4 $ % k k y F y S S % y y l g C ` k r g r O &   < r B 1 4 ",
"N N N H B , - $ @   . & @ k y # 6 w V V y X j ; 1 1 . . O       o 3 2 & , g k C M ; y y $ ; - - $ # M Z $ r % % : < o @ @ ; 3 3 ",
"w V ` S ; ; y ; X   $ > & ; $ ; u % u u ; ; $ : & &     $ @ @ $ 2 $ k S V % # @ t u g > : 2 - - ; # w w - - $ $ y : . $ y F t t ",
"k V S V S F ; $ . @ .   $ > $ r D V % c % > X @   @ . . ; j g g > , z k r # 8 w @ f z $ 1 2 > $ ; m k r $ - y s % # # @ ; % y ( ",
"Z _ E D ( ( k % $ $ X $ ; $ * r k u V K g ; .     @ = $ z A r j ; F y r 8 = h u f w u t = # # k _ M g J M e Y q q ! FXR . @ % V ",
"% Z V V u k J % > , & $ $ z t r v ' ) L j * %   . @ * * K [ k # ; ; y r 8 # h C u u c . * 6 c ] e e 6 9 Y Y ~.F.fXPXUX! . & $ % ",
"V Z w V V % j y g   # @ $ K ) v k t % # % % = # . % % * h c v t # X ; t h z v c k A z . r u ' w % I Y S.Q.CXIXCXxXCXFX# $ O ; ; ",
", y y y k w r y @ # : . * 6 5 t E % ; r * * * h $ . * r h h 8 r > $ $ # % c K z % j t # w Y s R F.(.gXmXNX8XU.B.{.IX~ @   + $ , ",
"y $ > y * % r k ; , > $ h # 8 Z ( 8 * % r 8 K N g r $ % % * z > $ X   X $ g P = % @ 6 d ! !.gXvXIXcXBXxXxXL.b.a.a._.p *       ; ",
"; , y k r u C N l : X > % r c c ( 8 % r z A c # > $ .   @ > @   + X   X # 6 s e a #.S.fXZXZXhXH.t.b.`.cXjXV.m.Z._.W 5 P @ o + $ ",
"% k k N z r > $   & 4 - > y 8 c S t ; y t J t > $ , , > =     + +   . @ 9 T E.Q.MXMXsX4XBXXXe.2.4.3.1.P.cX}.m.y.l.U 9 k *   +   ",
"$   r z * @ @ X X X : + - - % V C S % u r Z 6 w $ 1 r & % #     . 7 R ^.=XLXKXmX4XrXrXqX6XJ.4.0.C.5.5.3.XXxX|.OX^.0 b t g X   + ",
"  % * r * * & O - $ X 4 : X , j w M k J ` * w u 8 l # $ @ # 6 R E.fXCXKX-XR.-XfXtXqXqXiX5Xt.4.9.5.7.7.3.`.NXNXPXQ c u $ X :   + ",
"  . . w 8 % $ X + - + X $ - j ; $ y * * r w m i # # m Y I F.fXCXAXAXMX@. .@X&.*.yXeXqX4XlXm.4.5.5.5.8.2.'.NXmXS.6 > X   - : o + ",
".   @ r t h 8 #   4 O   $ ; k A @ @ g j % e d p T S.&XMXkXVXyX0X0XtX*X%.SX@X@X%.&XeX<XqXpX{.3.7.0.0.3.b.3XNXgXd % # X $ o o & o ",
"O   > 6 t u t %   + o = = # 6 S @ % 9 # Y #.T.(.gXZXaX,XpX1XqXrXqXyX%X%.#X@X#X%.W.uXqX,XrX7XK.3.2.4.t..X4XVXG.9 %   X     o = < ",
"o   > ; w % % + + + 4 o . % $ 6 9 9 ! E.;XMXVXBXZXNXwXeX<XeXeX<XeXsX9X+.&.$X&. .;XiXqXrXrXrXNX.X'.{.1XpXaXdXI % .       * = $ ; ",
". > A u u ; - X @ .   @ # 9 I #._.JXZXVXiXeXNX}.{.{.5XzX<X<X4X.X[.kXMXR.+...*.%XuXqXqXqXrX0XMX9XmXAXrX1XsX&X5 > .     + r y F - ",
"% k z r , = & . # 5 9 I O.Q.dXZXvXoXjX6X<X3XK.e.2.<.b.XX6X6X}.t.M.N.kXsXyX;X9X0XrXqXqXrXMXR.+.*.*.R.tX4XCXR 9 j = o + 4 k u S w ",
"K K t $ > * 6 t U U A.JXCXyXaX}.n.r.V.lX6X[.2.5.C.5.<.r.lX7Xm.Z.Z.m.{.eXaXaXaXiXqXqXqXuXdX+.@X#X>...;XmX).5 ; $ < < 3 - V s t u ",
"g k - ; = 5 W A.A.l.1.Y.xX4X5XV.M.Z.b. XcXn.v.5.0.0.5.4.[.BXL.b.n.m.>XNXjX'.'.XX4XeX,XsXR.*.HX&.#X*.W.nXQ   > > n x l & w e Z f ",
"= 1 $   = { A.l.c.c.y.y.xX6XzXL.b.V.r.+XcXe.4.6.6.C.0.<.'.zX2XL.N.[.xX.Xv.v.4.2.U.7XiX0X&X*.@X#X@X..=X*X  4 M r = = = > # 6 b u ",
"1 #   @ 9 ] -.l.g.x.g.f.|.NXiX>XU.m.}.zXzXJ.3.C.5.5.6.v..X4X4XiX3XNXjXb.6.6.0.v.<.[.4XwXyX@. .&.o.*.KX+.# y   . o o   $ w r g z ",
"    $ V ( t | | l.g.g.u.s.{.6XaX6X6X4X<XaX.Xe.1.3.4.2.L.3XqXqXrXqXaX[.3.8.q.9.9.4.m.zXaXkXgX-XR.*XnXJXY w   # O = @ . ; @ $ = = ",
"X   F L 6 b E ~ ^ h.p.z.z.w.H.+X6XeXqX,X,XiX.XH.a.a.{.4XeXqX,XqX,XpX'.2.4.8.6.n.6.v.jX XN.Y.vXVXMXCXF.@ @       . . O O   X + + ",
"; y M J c c u 9 T ~.g.g.z.c.w.J.zX,XqXqXqX<XBXcXxX5XpXrXeXuXuXrXrXaXXX1.t.3.8.9.2.].+Xb.n.v.P.6XuXdXp     o . = $ $ & + 4 +   o ",
"8 v c c k j y k s T k.g.z.x.c.w.K.jXiX,XqX<XXX XjXaXpX0XMXdX;XAXwXiXzXL.w.2.8.9.4.hXoXb.Z.M.V.8XBXS.# .         @   +   +   . $ ",
"8 h h 8 ; > y C S E -.^ z.g.z.f.w. X6X<XiX}.b.n.V.jXtX:XT.+.=.T.;XwX4X7X[.m.4.V.XXcXjXJ.b.b.}.BXgXY %   O +   o     o + X O   # ",
"l ; # t w 8 r ` w f I W ~.h.j.z.w.B.7XeX3XV.M.Z.r. XmXR...SXSX..R.MX<X<XpX8XzXxXBXzXaX1X}..X4XZX).6 w r - @ * g * =   1 2 - $ @ ",
"  $ $ h t r * ` ; V t p W -.h.g.g.s.xXaXzXP.b.M.b.hXbX+.SX$X:.@X+.9XrXqXqXiX5X{.{..X4XiXeXeXiXCXR * w y % ; k g G z $ : > j y @ ",
". * $ # 8 t r G ; r V # 0 ~ ~.k.g.s.|.BX<X8XK.H.}.aXyX=.&.$XGXX.T.MXwX<XzX.Xt.e.2.3.L.lX4XuXMX(.e y ; y ; y k j * z $ j : - % $ ",
"  > * % # * * j > X j _ s a } ^ h.s.s.:XVX1XNX5XiX1XtX%X .&.X...W.sXqX4XjXt.4.0.5.r.<.'.aXuXCX! 6 u $ ; y y M S t j $ $ * = . $ ",
"& = $ * = * g z > 2 , y ( s 0 | ^ p.G.f.:XzXaX<X,X<XeXyXdX!.F.(.VXpX,XpX[.4.8.9.q.9.v.b.3XsX(.# % y % > y ; ; M w y j * > & @ . ",
"< o @ g 8 % $ $ X 2 j j e # 5 I ~.h.l.w.s.|.xX3XaXeX1X6XhXK.d.d.{.3X,XNX'.<.8.9.9.9.9.b.8XMX#.# y M k r r ; - ; , $ $ . * & = & ",
"O : = $ .   . $ :   2 j 6 k E ] m } k.j.i.s.a.d.>XaXpX.X3.4.e.1.<.P.aXuX|.y.r.5.8.8.3.N.zXbXs $ B j z k r k y , X X # % *   o : ",
": l ,   $ ; r - $ j ; % t Z ` t # s | l.l.j.z.w.H.xXzXJ.5.0.r.5.4.3..XpXzXJ.1.3.4.4.e.+XIXS.. : B ; j z @ @ $ + X     . @ $ > X ",
"j l y # % $ ; ; $ > H r w t J w V e I ~.x.z.g.z.w.Y.cXy.4.5.5.8.8.4.{.4X4X3X{.a.y.J.2XcXJX0 . : : r V * $ $   & X X = > g j 2 l ",
", % % r S J V r u ; M j % . # Z c f p I ~ l.g.D.g.y.oXa.3.8.8.8.4.r.{.aX<X6XZXjXzXlXaXmX@.# @ 1 B r A r * * *     ; l * r r j B ",
"z k h u V V u % V M y r k r $ * t h e D Y } D.u.j.p.d.].4.9.6.q.3.r.8XpXzX.X}.cX6XiXuXdXs . > j y ; 6 w 8 g * &     * > j $ $ ; ",
"K Z Z 8 # % r w y C r # r * $   @ # y ; @ i -.D.l.D.d.OXY.3.4.6.b.XX6XBX Xt.b.M.3XeXBXQ.# $ r # % i k c z C j 1 = @   @ H y > L ",
"8 % % > r r y > r j M ; r ; . . . * g # = # I | l.l.p.d.hX|.U.}.5XzXVXdXD.i.x.m.{.aXCX! e y # G ' f S V k > > $ $ X $   X @ ; j ",
"C h k C N j > % j j z j k > ; @   = = = g # . 0 | l.j.u.I.ZXBX6XiX0XW.+.#.;.g.f..XVXgXI m k * K t 6 u r ; M M u % # j : X . * g ",
"* = $ $ X   O j j M r k k > k j ; = @   % @ % * f } D.p.u.I.xXuX0X;X..>.DX>.$.E.MXZXF.w i ; - k ( Z V M ; u w M N % , >     @ $ ",
"  $ O & X X   & $ * $ # * k * % , j = @ # r l g u p -.h.j.i.I.VXsXW.*.GX:.#X*.R.mXdXY w , ; F j 6 6 r M V L L ; y M j $ X = @   ",
"      @ & $ 1 &   $ $ $ * > > u K r t # 6 > ; N , t Y ~.^ j.u.I.VX&X..$X#X@X..=XPXO.5 r $ 1 j + > > % > j , N ; - B >   - O   @ ",
"  $   o @ * 1 = : : O . @ # > M r ; k 6 r 6 % r : ` b W ~.l.g.i.I.gX=.o.*...+.KXJX0 9 r g $ B , % & > j $ X : : $ : 2 @ > $ = * ",
"  O   .       $ + + . $ $ $ ; k > y k z Z Z z g z V w p q ~ k.h.u.G._.G.!.W.MXKXR % 6 u ; % k y $ . X . & > $ ; ; $ -     1 2 > ",
"    & > $ . . $ = O $ O & & ; > # ; % % w V Z K z # r t # a -.A.j.g.w.f.(.IXvXG.9 $ F y y y ; l % $ $ $ L M ; : $ $ $ $ % z > $ ",
"    & < 2 $ +   . $   X = $ ; $ $ $ # $ # r % h h = h 6 # 5 s | k.j.p.p.w._._.T e % - - - % : 2 , # r j H % @ % %   % $ j ; $ > ",
"+   : > j ; # $ @ .   O O . $   X ; , $ $ v v z 8 % 8 = . # @ a ^ l.l.x.c./ / q # $   1 $ @ 1 < > $ > > # > r % @ . ; j N j ; , ",
".     : 2 > ; k j > X $ $   .   + $ > k h 8 = h * . . . . . t @ Y -.g.g.p.D.W 6 % # k * r $ , H X @ ; * % H z $ * ; * > B N N P ",
"O $ $ ; r k ; 6 w > & > ; & ;   + 2 r 8 t k t           . , 1 r ; { ~.k.D.~ e .   > n 8 % > % % . . , @ , j @ $ $ % 1 > , : 2 2 ",
". $ $ j S u u u S ; $ ; , M :     : $ g v % $ : : X X & $ 2 ; y > # U { I 7 S ; X $ & < O & $ @ @ $   $ j & $ X * * & 1 $ $ l X ",
". . M u u y e y M > ; % & * ;   . 1 j > * . X $ : 4 : & O 2 1 ; , u ( t h t ; F @ & o < O o * # & $ @ * 1 $ = = & & $ & + & > + ",
". r ; k % u L V V k j > ; * , . . * l $   X   .   + : : : r > * S E r r 8 = $ X 8 8 @ & O O ; % $ . @ & o   o & o   & & .   .   ",
"r # w V % V u M y j g 2 $ * *   .   O X   O     $ O X X X $ > r w # @ @ $ . : X 8 @ $ + o     + $ .               o   X j > . g ",
"y k J ; k S # # $ > > -   $ .   @     .       o     + + X - j k 6 % $ $ * $ j , : $ X +   +     . 1 . O     + + X     @ @ @ * % ",
"y J y w S r ; , > & &   . . @         X     o     + + + + X @ . #   & * l g F M y y -   $ o + + $ z 1 > &     +   O       . * * ",
"k k y N * % > $ > o &   O   .     O   o   o o             : X X + - * G 3 $ H V u u t 6 % @ = * k g $ & : +   + +     @ * G ) v ",
"k u k * > $ @ .     O =   $   $ : : $ $ o     + O   $ * X 2 4 : - ; g x = N A M V f E b N r = n z $ . $ & +   + X     . z ) c h "
};
