/* XPM */
static char *eaea9e4fa6d843bfbc99e2d203bcca69O5upPcZSx5cChfwb[] = {
/* columns rows colors chars-per-pixel */
"44 64 114 2 ",
"   c None",
".  c #37352A",
"X  c #39372C",
"o  c #3C3A2E",
"O  c #3F3D30",
"+  c #403E31",
"@  c #454234",
"#  c #494637",
"$  c #4A4738",
"%  c #4D4A3A",
"&  c #514E3D",
"*  c #445535",
"=  c #4B543A",
"-  c #53503F",
";  c #565341",
":  c #595543",
">  c #5D5A47",
",  c #5F5B48",
"<  c #615D49",
"1  c #65624D",
"2  c #68654F",
"3  c #6A6651",
"4  c #6D6953",
"5  c #716D56",
"6  c #757259",
"7  c #7A755D",
"8  c #7D795F",
"9  c #7F7A60",
"0  c #827E63",
"q  c #43843E",
"w  c #4A8743",
"e  c #4D8946",
"r  c #548C4C",
"t  c #5C8D52",
"y  c #628D56",
"u  c #7A815E",
"i  c #619156",
"p  c #66915A",
"a  c #69935D",
"s  c #7B8A64",
"d  c #6E9461",
"f  c #739565",
"g  c #7D9A6D",
"h  c #878267",
"j  c #84806C",
"k  c #8A8569",
"l  c #8F8A6E",
"z  c #908B6E",
"x  c #86906B",
"c  c #8C8976",
"v  c #8E8A78",
"b  c #938E73",
"n  c #839B72",
"m  c #8B9C77",
"M  c #8B9E79",
"N  c #969073",
"B  c #969279",
"V  c #9B967E",
"C  c #92987A",
"Z  c #9D987E",
"A  c #90A07C",
"S  c #9D9780",
"D  c #9F9A80",
"F  c #A09980",
"G  c #A59E86",
"H  c #A49F87",
"J  c #A69E87",
"K  c #94A280",
"L  c #98A383",
"P  c #9AA385",
"I  c #9AA485",
"U  c #9BA486",
"Y  c #9DA588",
"T  c #A5A088",
"R  c #A5A089",
"E  c #A6A189",
"W  c #A5A28A",
"Q  c #A7A28A",
"!  c #A6A38B",
"~  c #A0A68A",
"^  c #A1A68B",
"/  c #A2A68C",
"(  c #A2A78C",
")  c #A3A78C",
"_  c #A7A58D",
"`  c #A5A78E",
"'  c #A2A88C",
"]  c #A6A88F",
"[  c #A7A88F",
"{  c #A7AA90",
"}  c #A8A890",
"|  c #AAA992",
" . c #ABA992",
".. c #ABA993",
"X. c #ABAA93",
"o. c #ACAA93",
"O. c #ACAA94",
"+. c #ADAA94",
"@. c #ADAA95",
"#. c #AEAB96",
"$. c #AFAB96",
"%. c #B0AB97",
"&. c #B0AC97",
"*. c #B1AC97",
"=. c #B0AD97",
"-. c #B1AC98",
";. c #B1AD98",
":. c #B2AC98",
">. c #B2AC99",
",. c #B3AC99",
"<. c #B2AD99",
"1. c #B2AE99",
"2. c #B3AE9A",
"3. c #B4AD9A",
/* pixels */
"                                                                                        ",
"                                                                                        ",
"                                                                                        ",
"                                                                                        ",
"                                                                                        ",
"                                                                                        ",
"                                                                                        ",
"                                                                                        ",
"                                                                                        ",
"                                                                                        ",
"                                                                                        ",
"                                                                                        ",
"                                                                                        ",
"                                                                                        ",
"                                                                                        ",
"                                                                                        ",
"                                                                                        ",
"                                                                                        ",
"                                                                                        ",
"                                                                                        ",
"                                                                                        ",
"                                                                                        ",
"                                                                                        ",
"                                                                                        ",
"                                                                                        ",
"                                                                                        ",
"                                                                                        ",
"                                                                                        ",
"                                                                                        ",
"                                                                                        ",
"                                                                                        ",
"                                                                                        ",
"                                                                                        ",
"                                                                                        ",
"                                                                                        ",
"                                                                                        ",
"                                                                                        ",
"                                                                                        ",
"                        @ # # @ @ @ @ @ @ @ # @ @ @ # @ @ @                             ",
"                      $ 1 3 3 3 3 3 4 3 3 3 2 3 3 3 3 3 3 3 &                           ",
"                    @ < 1 4 1 4 1 3 1 3 3 1 4 4 3 1 3 1 4 1 3 &                         ",
"                  O - , - > > 1 1 2 < 3 1 , 1 < 2 , , > , , > > +                       ",
"                  o & - & & > > 1 3 , 3 : , 3 : 1 4 < > ; ; , - +                       ",
"                  O $ & - > > > ; 1 ; ; 1 > 1 : ; 1 > , , ; ; % +                       ",
"                  o ; : % ; & ; & ; + & % # & & & & & - & & & % +                       ",
"                  O % % + % # @ % + # % + @ @ @ # @ & @ # # $ $ +                       ",
"                  O @ O @ + + @ @ # + # + @ @ + % % $ o @ # O . O                       ",
"                  + & + X X X + + + O + X + + X @ X @ O O X X & +                       ",
"                    ; < @ X X X X X X X o X . . . . . . X X : :                         ",
"                    o 4 4 8 j v v v v v c v c v c c c j 8 4 8 @                         ",
"                    O 4 0 z Z 1.2.*./ r e e n =.i ] =.! b h 8 #                         ",
"                    O 3 8 l Z *.*.+.y P ' U p A e ' *.T b 0 5 #                         ",
"                      @ 6 0 Z *.P [ +.%.>.n d m q ' +.T h 9 %                           ",
"                      + 6 0 Z I p f ..%.>.>.g t i X.2.J h 8 %                           ",
"                      @ 6 0 x a U n d X.+.%.2.2.+.g +.Q h 8 %                           ",
"                        : 8 u m g K M X.>.+.+.+.] w ` b 0 <                             ",
"                        @ 6 0 J t m 2.+.%.+.+.+.] e ! k 8 &                             ",
"                        # 8 0 J a n %.*.2.+.d A Y r ! k 9 ;                             ",
"                        # 5 0 Z X.p n L ` f f A t / T h 6 -                             ",
"                          % 8 h Z +.p a K a a t ~ T k 9 >                               ",
"                          # 3 9 h B S S S s y C V k 0 5 -                               ",
"                            $ : : ; ; ; ; : * = ; ; : &                                 ",
"                                                                                        ",
"                                                                                        "
};
