/* XPM */
static char *exit[] = {
/* columns rows colors chars-per-pixel */
"50 64 171 2 ",
"   c #050305",
".  c #0A0406",
"X  c #080608",
"o  c #0C0A0C",
"O  c #120C0D",
"+  c #110F11",
"@  c #141314",
"#  c #191719",
"$  c #1C1B1C",
"%  c #380808",
"&  c #211E1E",
"*  c #251515",
"=  c #21201F",
"-  c #201E20",
";  c #252324",
":  c #2B2625",
">  c #2C2827",
",  c #2C2A2B",
"<  c #332D2C",
"1  c #362625",
"2  c #2E302E",
"3  c #37312F",
"4  c #363433",
"5  c #3A3433",
"6  c #373837",
"7  c #3F3937",
"8  c #383638",
"9  c #3C3B3B",
"0  c #481919",
"q  c #5E1818",
"w  c #433D3C",
"e  c #642624",
"r  c #7D3A39",
"t  c #3F403E",
"y  c #43403E",
"u  c #433F40",
"i  c #454343",
"p  c #4A4644",
"a  c #4C4847",
"s  c #4D4B4B",
"d  c #494749",
"f  c #514947",
"g  c #514D4C",
"h  c #594E4F",
"j  c #4F504F",
"k  c #52504E",
"l  c #524F51",
"z  c #545352",
"x  c #5A5554",
"c  c #575957",
"v  c #5B5857",
"b  c #5F5658",
"n  c #5D5C5B",
"m  c #625554",
"M  c #635D5C",
"N  c #6C5E5E",
"B  c #625957",
"V  c #5F615F",
"C  c #64605F",
"Z  c #6A615F",
"A  c #615F60",
"S  c #646363",
"D  c #6B6464",
"F  c #676967",
"G  c #6C6B6B",
"H  c #6A6868",
"J  c #736C6C",
"K  c #766565",
"L  c #6E706E",
"P  c #74716F",
"I  c #79706F",
"U  c #746F70",
"Y  c #747372",
"T  c #7B7575",
"R  c #777977",
"E  c #7B7877",
"W  c #7D7C7B",
"Q  c #797678",
"!  c #890806",
"~  c #820806",
"^  c #940C0C",
"/  c #A71110",
"(  c #A72223",
")  c #BE2223",
"_  c #817C7C",
"`  c #877674",
"'  c #907577",
"]  c #957C7B",
"[  c #CA5E60",
"{  c #83807E",
"}  c #817F81",
"|  c #858383",
" . c #8A8383",
".. c #8D8B8B",
"X. c #8A8888",
"o. c #918584",
"O. c #928D8D",
"+. c #988685",
"@. c #8F908F",
"#. c #93908F",
"$. c #949392",
"%. c #9A9695",
"&. c #999897",
"*. c #989798",
"=. c #9C9B9B",
"-. c #A48F90",
";. c #A59394",
":. c #A09798",
">. c #A29C9C",
",. c #AB9F9E",
"<. c #B39D9D",
"1. c #A0A09F",
"2. c #AAA09F",
"3. c #A49FA1",
"4. c #A4A3A3",
"5. c #AAA4A5",
"6. c #A9A8A6",
"7. c #A8A7A8",
"8. c #ACAAAB",
"9. c #A6A8A6",
"0. c #B5A5A5",
"q. c #B3ACAC",
"w. c #BBADAC",
"e. c #B0B0AE",
"r. c #BCB0AE",
"t. c #B6AFB0",
"y. c #B5B4B3",
"u. c #BBB4B4",
"i. c #BBB6B8",
"p. c #BCBBBB",
"a. c #B9B8B6",
"s. c #C3B5B5",
"d. c #C3B8B7",
"f. c #C2B7B8",
"g. c #C3BBBC",
"h. c #CABFBD",
"j. c #C2C0BF",
"k. c #C6BFC1",
"l. c #C5C3C3",
"z. c #CBC3C4",
"x. c #C8C8C6",
"c. c #CCCBCB",
"v. c #D2C6C4",
"b. c #D4C8C7",
"n. c #D3CBCC",
"m. c #DCCFCE",
"M. c #D5CFD1",
"N. c #D9CFD1",
"B. c #D4D2D3",
"V. c #DCD3D4",
"C. c #DCD6D8",
"Z. c #DCDBDC",
"A. c #E1D5D5",
"S. c #E3D9D7",
"D. c #E0D6D8",
"F. c #E4DBDC",
"G. c #E0E1DF",
"H. c #E7DEE0",
"J. c #E8DFE1",
"K. c #E5E4E4",
"L. c #EBE3E5",
"P. c #E7E8E6",
"I. c #ECE7E8",
"U. c #EDEAEB",
"Y. c #F1ECED",
"T. c #EEF0EE",
"R. c #F1EFF0",
"E. c #F4F3F3",
"W. c #F8F3F5",
"Q. c #FBFCFB",
"!. c None",
/* pixels */
"!.!.!.!.!.!.!.!.!.!.!.!.!.!.!.!.!.!.!.!.!.!.!.  !.!., !.!.!.!.!.!.!.!.!.!.!.!.!.!.!.!.!.!.!.!.!.!.!.",
"!.!.!.!.!.!.!.!.!.!.!.!.!.!.!.!.!.!.!.!.!.!.i l.; o l.d !.!.!.!.!.!.!.!.!.!.!.!.!.!.!.!.!.!.!.!.!.!.",
"!.!.!.!.!.!.!.!.!.!.!.!.!.!.!.!.!.!.!.!.!.!.s R.q.3.U.j !.!.!.!.!.!.!.!.!.!.!.!.!.!.!.!.!.!.!.!.!.!.",
"!.!.!.!.!.!.!.!.!.!.!.!.!.!.!.!.!.!.!.!.!.!.z Q.J.C.E.j !.!.!.!.!.!.!.!.!.!.!.!.!.!.!.!.!.!.!.!.!.!.",
"!.!.!.!.!.!.!.!.!.!.!.!.!.!.!.!.!.!.!.!.!.z *.R.A.H.Y.@.s !.!.!.!.!.!.!.!.!.!.!.!.!.!.!.!.!.!.!.!.!.",
"!.!.!.!.!.!.!.!.!.!.!.!.!.!.!.!.!.!.!.!.# Y E.D.V.L.H.R.L + !.!.!.!.!.!.!.!.!.!.!.!.!.!.!.!.!.!.!.!.",
"!.!.!.!.!.!.!.!.!.!.!.!.!.!.!.!.!.!.!.!.  H E.V.D.V.D.E.H   !.!.!.!.!.!.!.!.!.!.!.!.!.!.!.!.!.!.!.!.",
"!.!.!.!.!.!.!.!.!.!.!.!.!.!.!.!.!.!.!.!.o L W.D.=.$.V.R.U o !.!.!.!.!.!.!.!.!.!.!.!.!.!.!.!.!.!.!.!.",
"!.!.!.!.!.!.!.!.!.!.!.!.!.!.!.!.!.!.!.!.o L W.V.=.=.N.E.G o !.!.!.!.!.!.!.!.!.!.!.!.!.!.!.!.!.!.!.!.",
"!.!.!.!.!.!.!.!.!.!.!.!.!.!.!.!.!.!.!.!.o S J.Z.$.=.b.F.H @ !.!.!.!.!.!.!.!.!.!.!.!.!.!.!.!.!.!.!.!.",
"!.!.!.!.!.!.!.!.!.!.!.!.!.!.!.!.!.!.!.!.o S V.3.u i =.M.D @ !.!.!.!.!.!.!.!.!.!.!.!.!.!.!.!.!.!.!.!.",
"!.!.!.!.!.!.!.!.!.!.!.!.!.!.!.!.!.!.!.!.H t.z.| - : ..M.i.G !.!.!.!.!.!.!.!.!.!.!.!.!.!.!.!.!.!.!.!.",
"!.!.!.!.!.!.!.!.!.!.!.!.!.!.!.!.!.!.!.X ..I.k.} , < @.V.W.$.@ !.!.!.!.!.!.!.!.!.!.!.!.!.!.!.!.!.!.!.",
"!.!.!.!.!.!.!.!.!.!.!.!.!.!.!.!.!.!.!.  } H.z...4 w =.G.E.O.+ !.!.!.!.!.!.!.!.!.!.!.!.!.!.!.!.!.!.!.",
"!.!.!.!.!.!.!.!.!.!.!.!.!.!.!.!.!.!.!.  J n.k.X.; 5 t.C.J.} X !.!.!.!.!.!.!.!.!.!.!.!.!.!.!.!.!.!.!.",
"!.!.!.!.!.!.!.!.!.!.!.!.!.!.!.!.!.!.!.   .Z.$.; > M N.y.c. .@ !.!.!.!.!.!.!.!.!.!.!.!.!.!.!.!.!.!.!.",
"!.!.!.!.!.!.!.!.!.!.!.!.!.!.!.!.!.!.< w :.z.Q < x U.o.#.d._ : < !.!.!.!.!.!.!.!.!.!.!.!.!.!.!.!.!.!.",
"!.!.!.!.!.!.!.!.!.!.!.!.!.!.!.!.!.!.< < o.d.W p F.>.a _ s.o.; ; !.!.!.!.!.!.!.!.!.!.!.!.!.!.!.!.!.!.",
"!.!.!.!.!.!.!.!.!.!.!.!.!.!.!.!.!.!.< 5 o.d...D p.g , Q g.X.< < !.!.!.!.!.!.!.!.!.!.!.!.!.!.!.!.!.!.",
"!.!.!.!.!.!.!.!.!.!.!.!.!.!.!.!.!.o $.v O.j.#.K D > : T z...a $.  !.!.!.!.!.!.!.!.!.!.!.!.!.!.!.!.!.",
"!.!.!.!.!.!.!.!.!.!.!.!.!.!.!.!.!.X B.P #.b.=.N 5 : l :.n.O.L c.X !.!.!.!.!.!.!.!.!.!.!.!.!.!.!.!.!.",
"!.!.!.!.!.!.!.!.!.!.!.!.!.!.!.!.!.a Z.E I s.u.D a a 3.V.j.T T B.s !.!.!.!.!.!.!.!.!.!.!.!.!.!.!.!.!.",
"!.!.!.!.!.!.!.!.!.!.!.!.!.!.!.!.@ E.P._ 5 D s.;.>.5.V.F.Y < G K.U.o !.!.!.!.!.!.!.!.!.!.!.!.!.!.!.!.",
"!.!.!.!.!.!.!.!.!.!.!.!.!.!.!.!.; E.C H g N s.s.L.L.V.L._ a z s E.@ !.!.!.!.!.!.!.!.!.!.!.!.!.!.!.!.",
"!.!.!.!.!.!.!.!.!.!.!.!.!.!.!.i Q.Q.S C i D s.w.F.F.I.U.E p c g Q.Q.- !.!.!.!.!.!.!.!.!.!.!.!.!.!.!.",
"!.!.!.!.!.!.!.!.!.!.!.!.!.!.!.: Q.D V F p B 0.-.w x V.J._ s G F g Q.$ !.!.!.!.!.!.!.!.!.!.!.!.!.!.!.",
"!.!.!.!.!.!.!.!.!.!.!.!.!.!.t j.Q.8 V F a D o.w @.} A l. .x Y n 2 Q.y.9 !.!.!.!.!.!.!.!.!.!.!.!.!.!.",
"!.!.!.!.!.!.!.!.!.!.!.!.!.!.j E...k D H a f D H z.c.W  .v z G V l } R.i !.!.!.!.!.!.!.!.!.!.!.!.!.!.",
"!.!.!.!.!.!.!.!.!.!.!.!.!.z =.P.5 F #._ k p I q.m.K.v.| i p R $.G ; I.$.c !.!.!.!.!.!.!.!.!.!.!.!.!.",
"!.!.!.!.!.!.!.!.!.!.!.!.!.F T.y.y X.n.=.x Z 8.v.D.F.J.k.A i O.n...i l.E.Q , !.!.!.!.!.!.!.!.!.!.!.!.",
"!.!.!.!.!.!.!.!.!.!.!.!.8 | c.3 P C.U.=.k ` A.S.f.z.F.J.Y t X.V.F...x B.| t !.!.!.!.!.!.!.!.!.!.!.!.",
"!.!.!.!.!.!.!.!.!.!.!.@ X.Q.B.9 W C.T.=.v { F.r.@ 5 k.m.K u @.T.T.W 5 B.Q...$ !.!.!.!.!.!.!.!.!.!.!.",
"!.!.!.!.!.!.!.!.!.!.!., $.a.a R F.R.F.5.b Y 3.# =.$., 4.U V a.U.U.L...i y.| o !.!.!.!.!.!.!.!.!.!.!.",
"!.!.!.!.!.!.!.!.!.!., 9.U.y.y W I.Q.U.=.g < i } V.h.*.A i v 4.U.U.I...d q.P.*.@ !.!.!.!.!.!.!.!.!.!.",
"!.!.!.!.!.!.!.!.!.!.@ 9.e.S Q B.E.Y.I.%.p w U ,.%.B k.>.x z >.W.R.U.z.U S y.8.# !.!.!.!.!.!.!.!.!.!.",
"!.!.!.!.!.!.!.!.!., | B.#.d $.R.L.J.J.&.a g ;.g.W > b.N.Y x 4.E.T.F.H...x =.Z.X.o !.!.!.!.!.!.!.!.!.",
"!.!.!.!.!.!.!.!.!.# c.j.Q Y p.Y.F.D.J.*.g B w.n.W < M.L.{ n 4.U.L.F.I.p.T Q l.l.o !.!.!.!.!.!.!.!.!.",
"!.!.!.!.!.!.!.!.!.s B.Q x 5.J.J.H.D.L.=.l D s.V.G u Z.Y.X.n >.L.H.U.E.U.*.s R B.s !.!.!.!.!.!.!.!.!.",
"!.!.!.!.!.!.!.!.  P.P.W G q.D.H.L.U.I.=.s m s.K.b p Z.R.X.v =.F.I.U.F.F.>.A W K.P.@ !.!.!.!.!.!.!.!.",
"!.!.!.!.!.!.!.!.  P.S M 5.D.A.U.U.E.J.$.s K b.C.Y x I.R._ s $.U.F.L.F.F.I.8.S W K.o !.!.!.!.!.!.!.!.",
"!.!.!.!.!.!.!.$ Q.Q.v c 8.U.R.T.L.F.L.6.c N s.n.4.3 b.W...v %.F.L.J.L.L.U.y.J J Q.Q.- !.!.!.!.!.!.!.",
"!.!.!.!.!.!.t Z.Q.z F y.K.U.I.H.R.L.U.=.g D z.F.Q < B.L.E a $.F.L.L.A.Y.W.U.y.V z Q.Z.t !.!.!.!.!.!.",
"!.!.!.!.!.!.i W.H b y.K.U.Y.R.I.R.R.L.$.z I c.B.S 5 C.F.Y g %.Y.U.F.L.W.I.S.b.3.c Y W.j !.!.!.!.!.!.",
"!.!.!.!.!.n 8.E.> L B.R.Y.L.L.E.I.L.L.3.S I d.N.F 3 B.L.E x 4.U.I.U.W.Y.D.m.V.k.S 5 E.a.c !.!.!.!.!.",
"!.!.!.!.S 7.U.=.a 5.Z.U.L.I.Y.Y.J.J.U.7.D h  .m.Y > n.e.M c >.K.I.Y.E.J.A.V.A.b.$.v 6.T.4.z !.!.!.!.",
"!.!.!.- | P.5.i %.J.L.J.I.Y.K.8.F.Y.E.9.k 7 K g.H < B.O.a g $.H.L.L.t.m.A.F.F.F.F.9.x y.U.W @ !.!.!.",
"!.!.!.> X.i.6 $.L.L.J.Y.W.L.5.u N.W.W.3.a M u.w.n 5 Z.U.Q j =.I.D.l.9 %.b.A.F.I.E.Q.=.z l.$.6 !.!.!.",
"!.!.@ $.W.p.x L.L.R.Q.Y.J.>.d 5.x U.I.$.i B u.b.S ; H.Y.X.x $.D.b.; X.6 :.F.D.L.Q.L.Q.D l.Q.*.o !.!.",
"!.@ y.Q.4.J I.U.E.F.L.I...a *.E.W 3 g.=.k m <.h.n w Z.I.Y i #.d.> S v.{ t W K.Q.U.U.E.H.J =.E.p.; !.",
"!.X a.$._ B.W.U.L.U.F.L.O.S y.U.V.< x.=.g = g z.E w B.J 3 a $.r.; ..V.V.S @.E.R.Q.Q.D.K.M.| $.a.X !.",
"X 9.U.X. .L.I.I.F.F.L.L.%.x *.K.#.< j.$.k = a B.P < j.z = p O.w.> R n.4.n %.E.E.Q.L.F.L.F.T } P.4.  ",
"o *.P.x.$._ o.S.L.L.Y.q.v z ..{ y.< g.$.x < g V.S 1 k.g = i O.g.4 ..` 6.` P q.W.I.V.H. .U ..x.P.@.  ",
"o V B.Q.l.| | O.4.=.1.O.k w N e &.& g.i.| y i z.S : v.d 2 G y.s.; L e +.K D $.4.O.o.$.W W j.Q.B.c X ",
"o i 9.B.B.c.1.> 6 > > W M * q / 0 X O.q.| i i r.L : z.z 6 Q :._ o 0 ( r 1 A W ; $ & $ *.x.B.c.e.i o ",
"!.  j S V j = o $ @ @ @ o % ^ ) ~ O @ X X o !.0.Y : z.!.o X     X ! [ ( 0 $ @     o   + d V n i o !.",
"!.!.X @ @ @ !.!.!.!.!.!.!.      @ @ !.!.!.!.!.0.S ; c.!.!.!.!.!.  @ ; = @ @ !.!.!.!.!.!.o X X o !.!.",
"!.!.!.!.!.!.!.!.!.!.!.!.!.!.!.!.!.!.!.!.!.!.!.w.S < z.!.!.!.!.!.!.!.!.!.!.!.!.!.!.!.!.!.!.!.!.!.!.!.",
"!.!.!.!.!.!.!.!.!.!.!.!.!.!.!.!.!.!.!.!.!.!.!.-.v > z.!.!.!.!.!.!.!.!.!.!.!.!.!.!.!.!.!.!.!.!.!.!.!.",
"!.!.!.!.!.!.!.!.!.!.!.!.!.!.!.!.!.!.!.!.!.!.!.] d = z.!.!.!.!.!.!.!.!.!.!.!.!.!.!.!.!.!.!.!.!.!.!.!.",
"!.!.!.!.!.!.!.!.!.!.!.!.!.!.!.!.!.!.!.!.!.!.!.+.d - s.!.!.!.!.!.!.!.!.!.!.!.!.!.!.!.!.!.!.!.!.!.!.!.",
"!.!.!.!.!.!.!.!.!.!.!.!.!.!.!.!.!.!.!.!.!.!.!.' i ; d.!.!.!.!.!.!.!.!.!.!.!.!.!.!.!.!.!.!.!.!.!.!.!.",
"!.!.!.!.!.!.!.!.!.!.!.!.!.!.!.!.!.!.!.!.!.!.!.K 2 $ d.!.!.!.!.!.!.!.!.!.!.!.!.!.!.!.!.!.!.!.!.!.!.!.",
"!.!.!.!.!.!.!.!.!.!.!.!.!.!.!.!.!.!.!.!.!.!.!.' 6 : 2.!.!.!.!.!.!.!.!.!.!.!.!.!.!.!.!.!.!.!.!.!.!.!.",
"!.!.!.!.!.!.!.!.!.!.!.!.!.!.!.!.!.!.!.!.!.!.!.!.y.l.!.!.!.!.!.!.!.!.!.!.!.!.!.!.!.!.!.!.!.!.!.!.!.!."
};
