/* XPM */
static char *_0631b53cf224c40ef466e73bbcd038eObxotiiuRhFB99lY[] = {
/* columns rows colors chars-per-pixel */
"64 64 256 2 ",
"   c black",
".  c #010101",
"X  c #020202",
"o  c gray1",
"O  c #040404",
"+  c gray2",
"@  c #060606",
"#  c #070707",
"$  c gray3",
"%  c #090909",
"&  c gray4",
"*  c #0B0B0B",
"=  c #0C0C0C",
"-  c gray5",
";  c #0E0E0E",
":  c gray6",
">  c #101010",
",  c #111111",
"<  c gray7",
"1  c #131313",
"2  c gray8",
"3  c #151515",
"4  c #161616",
"5  c gray9",
"6  c #181818",
"7  c #191919",
"8  c gray10",
"9  c #1B1B1B",
"0  c gray11",
"q  c #1D1D1D",
"w  c #1E1E1E",
"e  c gray12",
"r  c #202020",
"t  c gray13",
"y  c #222222",
"u  c #232323",
"i  c gray14",
"p  c #252525",
"a  c gray15",
"s  c #272727",
"d  c #282828",
"f  c gray16",
"g  c #2A2A2A",
"h  c gray17",
"j  c #2C2C2C",
"k  c #2D2D2D",
"l  c gray18",
"z  c #2F2F2F",
"x  c gray19",
"c  c #313131",
"v  c #323232",
"b  c gray20",
"n  c #343434",
"m  c #353535",
"M  c gray21",
"N  c #373737",
"B  c gray22",
"V  c #393939",
"C  c #3A3A3A",
"Z  c gray23",
"A  c #3C3C3C",
"S  c gray24",
"D  c #3E3E3E",
"F  c #3F3F3F",
"G  c gray25",
"H  c #414141",
"J  c gray26",
"K  c #434343",
"L  c #444444",
"P  c gray27",
"I  c #464646",
"U  c gray28",
"Y  c #484848",
"T  c #494949",
"R  c gray29",
"E  c #4B4B4B",
"W  c #4C4C4C",
"Q  c gray30",
"!  c #4E4E4E",
"~  c gray31",
"^  c #505050",
"/  c #515151",
"(  c gray32",
")  c #535353",
"_  c gray33",
"`  c #555555",
"'  c #565656",
"]  c gray34",
"[  c #585858",
"{  c gray35",
"}  c #5A5A5A",
"|  c #5B5B5B",
" . c gray36",
".. c #5D5D5D",
"X. c gray37",
"o. c #5F5F5F",
"O. c #606060",
"+. c gray38",
"@. c #626262",
"#. c gray39",
"$. c #646464",
"%. c #656565",
"&. c gray40",
"*. c #676767",
"=. c #686868",
"-. c DimGray",
";. c #6A6A6A",
":. c gray42",
">. c #6C6C6C",
",. c #6D6D6D",
"<. c gray43",
"1. c #6F6F6F",
"2. c gray44",
"3. c #717171",
"4. c #727272",
"5. c gray45",
"6. c #747474",
"7. c gray46",
"8. c #767676",
"9. c #777777",
"0. c gray47",
"q. c #797979",
"w. c gray48",
"e. c #7B7B7B",
"r. c #7C7C7C",
"t. c gray49",
"y. c #7E7E7E",
"u. c gray50",
"i. c #808080",
"p. c #818181",
"a. c gray51",
"s. c #838383",
"d. c #848484",
"f. c gray52",
"g. c #868686",
"h. c gray53",
"j. c #888888",
"k. c #898989",
"l. c gray54",
"z. c #8B8B8B",
"x. c gray55",
"c. c #8D8D8D",
"v. c #8E8E8E",
"b. c gray56",
"n. c #909090",
"m. c gray57",
"M. c #929292",
"N. c #939393",
"B. c gray58",
"V. c #959595",
"C. c gray59",
"Z. c #979797",
"A. c #989898",
"S. c gray60",
"D. c #9A9A9A",
"F. c #9B9B9B",
"G. c gray61",
"H. c #9D9D9D",
"J. c gray62",
"K. c #9F9F9F",
"L. c #A0A0A0",
"P. c gray63",
"I. c #A2A2A2",
"U. c gray64",
"Y. c #A4A4A4",
"T. c #A5A5A5",
"R. c gray65",
"E. c #A7A7A7",
"W. c gray66",
"Q. c #A9A9A9",
"!. c #AAAAAA",
"~. c gray67",
"^. c #ACACAC",
"/. c gray68",
"(. c #AEAEAE",
"). c #AFAFAF",
"_. c gray69",
"`. c #B1B1B1",
"'. c #B2B2B2",
"]. c gray70",
"[. c #B4B4B4",
"{. c gray71",
"}. c #B6B6B6",
"|. c #B7B7B7",
" X c gray72",
".X c #B9B9B9",
"XX c gray73",
"oX c #BBBBBB",
"OX c #BCBCBC",
"+X c gray74",
"@X c gray",
"#X c gray75",
"$X c #C0C0C0",
"%X c #C1C1C1",
"&X c gray76",
"*X c #C3C3C3",
"=X c gray77",
"-X c #C5C5C5",
";X c #C6C6C6",
":X c gray78",
">X c #C8C8C8",
",X c gray79",
"<X c #CACACA",
"1X c #CBCBCB",
"2X c gray80",
"3X c #CDCDCD",
"4X c #CECECE",
"5X c gray81",
"6X c #D0D0D0",
"7X c gray82",
"8X c #D2D2D2",
"9X c LightGray",
"0X c gray83",
"qX c #D5D5D5",
"wX c gray84",
"eX c #D7D7D7",
"rX c #D8D8D8",
"tX c gray85",
"yX c #DADADA",
"uX c gray86",
"iX c gainsboro",
"pX c #DDDDDD",
"aX c gray87",
"sX c #DFDFDF",
"dX c gray88",
"fX c #E1E1E1",
"gX c #E2E2E2",
"hX c gray89",
"jX c #E4E4E4",
"kX c gray90",
"lX c #E6E6E6",
"zX c #E7E7E7",
"xX c gray91",
"cX c #E9E9E9",
"vX c #EAEAEA",
"bX c gray92",
"nX c #ECECEC",
"mX c gray93",
"MX c #EEEEEE",
"NX c #EFEFEF",
"BX c gray94",
"VX c #F1F1F1",
"CX c gray95",
"ZX c #F3F3F3",
"AX c #F4F4F4",
"SX c gray96",
"DX c #F6F6F6",
"FX c gray97",
"GX c #F8F8F8",
"HX c #F9F9F9",
"JX c gray98",
"KX c #FBFBFB",
"LX c gray99",
"PX c #FDFDFD",
"IX c #FEFEFE",
"UX c white",
/* pixels */
"7X6X7X7X7X6X8X9X9X0X0XqXwXwXwXrXtXtXyXiXpXpXiXaXsXsXsXdXfXdXdXdXdXdXfXdXfXfXgXgXfXfXdXdXdXdXfXdXdXdXdXdXdXsXdXdXdXsXsXsXdXdXdXsX",
"4X4X5X4X6X6X7X7X7X9X9X0XqXwXwXeXrXtXtXuXiXiXiXaXdXfXfXaXeXqXgXgXgXfXdXdXfXfXgXfXdXfXfXdXdXdXdXdXsXfXdXfXfXdXsXdXdXsXdXsXdXdXdXdX",
"3X2X2X2X4X4X5X5X5X7X7X8X0X9X0XwXeXrXtXuXuXiXsX8X'.F.p.3...| h.D.].6XuXuXiXsXfXgXdXfXdXsXdXfXdXdXdXfXdXdXdXdXsXdXdXsXdXdXdXdXdXdX",
"<X<X<X<X1X1X2X3X4X4X6X6X8X8X9XqXqXeXrXyXuX7X;XA.V g p p s d g z V [ w.C..XeXgXfXfXdXdXfXdXdXdXdXsXfXfXsXdXfXdXdXdXsXsXsXfXfXdXdX",
">X>X>X:X>X,X<X1X2X2X4X4X5X7X8X0X0XwXeXwX/.{ H N f d d f g j k k h c Z F #.W.qXsXfXdXdXgXgXdXdXfXdXfXdXdXdXdXfXdXsXdXsXsXdXdXdXdX",
";X;X;X:X:X:X:X>X<X<X1X3X4X5X7X9X9XqX<Xx.I g f d d d d f g h h z z k M A V ~ k.<XdXfXdXfXdXdXdXdXdXdXsXdXdXdXdXdXsXdXdXsXdXdXdXdX",
"=X=X=X-X-X-X-X:X>X,X<X<X3X4X5X7X7X3Xd.b s s f f d d d d f h g f c l z M V N T h.7XfXdXdXdXdXdXsXsXdXdXdXdXdXdXdXsXdXdXdXdXsXsXfX",
"&X&X&X*X*X*X*X-X:X>X>X,X<X2X4X5X6XU.I g d d d s d d d s d g j g z x c c N m Z R D.pXsXdXdXdXdXdXsXdXdXsXsXdXdXdXsXdXdXfXdXdXsXsX",
"&X&X&X&X&X&X&X*X-X;X:X:X>X<X2X3X=X8.n f d d d d f d d s f f l k j g j h x k z v { .XdXfXdXdXdXdXdXdXdXsXdXdXsXdXdXsXdXdXdXdXdXdX",
"&X&X%X$X%X%X%X%X&X=X-X-X>X<X2X1Xm.A h d d f f f g f d d f f h j g d f g j f f h c =.1XfXfXfXdXdXdXdXsXsXdXsXsXdXsXdXsXsXfXdXdXdX",
"%X%X$X$X$X$X%X%X%X*X=X=X;X:X<X&X=.k d d d d d f d s f g h j v V D P E ! T A k f s k 4.,XgXfXdXdXsXdXdXdXdXsXsXdXdXsXsXsXfXdXdXfX",
"&X%X$X#X#X#X#X#X$X%X&X&X=X;X<X].! j f d d d d d h c Z I E / %.q.s.z.V.A.V.d.} c s s m E.dXfXdXfXsXdXsXsXdXdXdXdXdXdXdXsXdXfXdXdX",
"&X%X#X#X#X@X@X@X@X#X$X&X=X;X<X%X*.m h f f h v G ~ o.,.0.u.f.M.G.P.R.(.`.[.'.H.O.k s j d.uXdXdXfXdXsXsXdXsXsXdXdXsXsXdXsXdXfXdXdX",
"%X%X#X@X@X@X+X+X+X@X@X#X*X;X>X>XC.C f f l F ] =.5.y.f.c.B.D.L.R.!.).]..X+X+X.XZ.I f g o.6XfXdXfXfXdXdXdXdXsXdXsXsXdXsXsXdXfXdXdX",
"%X%X#X@X@X+X+XOXOXOX+X@X%X=X:X1Xl.z f d H $.4.0.y.g.b.Z.F.I.E.Q.).]. X#X=X=X*X].#.z f { 0XfXdXfXdXfXdXdXfXdXdXsXdXdXsXfXfXfXdXsX",
"%X%X#X@X@XOX+XOXoXoXOX@X$X*X:X1XB.v s l @.y.y.p.f.x.V.D.J.T.~./.`. X#X-X>X>X>X&Xi.V g U ,XgXdXdXdXfXdXsXfXdXsXdXdXdXsXdXdXdXdXdX",
"&X%X#X@X+XoXoXoXXXXXoX+X$X*X:X1X!.S s Z e.k.f.g.l.b.B.S.K.T./._.]..X#X-X,X>X<X>XA.U g D &XfXfXgXfXfXdXdXdXdXdXsXdXdXsXsXsXdXdXsX",
"&X$X#X@XOXoXoXoXoXoXOX@X#X&X:X<X*X[ s F p.x.j.k.x.n.B.A.J.T.^._.]. X@X*X,X<X1X1X^._ j / 7XfXdXfXdXfXdXdXfXdXdXdXdXdXdXsXdXdXsXdX",
"%X#X@XOXoXXX.XXXXXoXOX+X$X*X:X<X3Xe.f D y.z.l.k.l.n.V.A.H.I.Q.^._.}.oX%X>X<X1X2XXX+.v X.tXfXsXdXfXdXsXdXfXdXdXdXsXsXdXsXdXsXsXdX",
"%X$X#X+XoX.X.X.X.X.XoX+X%X*X>X<X3XU.m M 9.k.k.k.k.v.C.D.G.P.E.!.(._.|.+X*X-X,X1X+X-.S ,.pXfXdXdXdXfXsXdXfXdXdXdXsXsXsXsXsXsXsXdX",
"#X$X+XOXXX.X.X XXXoXoX+X%X=X>X1X3X XJ z 1.k.g.g.f.j.V.J.J.Y.Q.~.!.^.'.).].XX&X>X+X6.R s.dXdXdXgXdXdXdXdXfXdXsXsXsXaXsXsXsXsXsXdX",
"%X$X+XOXoXXXXXXXXXoX+X#X*X-X,X1X4X=X` k =.h.u.r.9.s.N.D.H.I.!.Q.P.j.:...&.u.E.$X%Xu.^ k.dXdXsXfXdXsXdXdXdXfXdXsXaXsXsXsXsXsXdXdX",
"&X$X@X+XoX.X.X.XXXoX+X$X=X:X,X2X4X5Xp.x %.u.$.! I ~ %.p.l.N.R.G.u.` F A I ~ @.v.`.s.E h.dXdXsXdXdXsXdXdXfXdXfXfXaXsXsXsXdXsXdXsX",
"&X%X@X+XoXoX.X.XoXOX@X%X;X>X<X2X4X8XQ.Z #.+.m h j z A ~ } -.a.w.%.) G I %.3.&.O.' +.] b.fXdXsXsXdXsXsXsXfXfXdXdXsXsXsXsXsXsXsXsX",
"&X%X@XOXoXoXXX.XXXoX@X&X;X,X1X3X5X7XOXP C C K ] / A b v b c S ! 1.[ H N o.2.D.`.,.2.3.Y.6XaXsXdXdXdXsXsXdXfXsXdXsXsXsXsXdXdXsXdX",
"&X%X#X@X+XOXXXXXoXoX@X*X:X,X2X4X5X6X=X#.n ] %.T A x B l B h G ^ k.&.[ &.c.b./.;Xv.R.Z..XY.<XsXsXsXdXsXsXdXdXdXdXsXsXaXdXdXdXsXdX",
"*X&X#X@X+XOX.XXXoXXX+X&X;X>X1X3X4X%Xr.{ Q 7.O.Y ! J Z M V F t.w.u.l.p.N.U.E.}.%Xb.[.S.XXT.].dXsXsXdXsXdXdXdXdXdXsXsXpXdXsXsXsXdX",
"=X&X$X@X@XOXXXXXXXXX@X*X:X,X2X3X6X/.] o.O.3.O.] { [ ! E H ^ j.J.9.U.Y.!.'.}.;XXXm.#Xg._./.].dXsXdXsXsXsXfXsXsXdXdXsXsXsXsXsXdXdX",
"=X&X$X#X+XoXXXXXXXoX@X=X:X,X2X3X6X'...=.2.&.7.,.:.=.X.' H } r.P.t.u.L.R.^._.(.c.Q.$Xk.K.(.2XsXsXdXsXsXaXfXdXdXdXsXaXsXdXdXdXsXsX",
"*X&X$X#X+XXX.XXXXXoX@X*X-X>X1X3X4X-X8.%.y.@.&.;.#.{ ! H J O.9.C.Z.5.3.9.y.d.N._.*XoXx.P.&XiXsXdXdXsXsXaXdXdXfXsXsXaXaXaXaXdXsXaX",
"=X*X%X#X@XoXXXoXoXOX$X*X;X,X2X3X4X6XQ.;.t.s.,.X.) ! Y P ~ *.p.I.R.H.H.T.].XX%X*X=X[.z.XX0XaXsXdXaXsXdXdXdXsXdXsXaXaXsXsXsXaXdXsX",
"=X*X&X$X@XoXoXXXXXOX#X&X-X>X<X2X3X5X2Xg.2.j.a.t.3.1.&._ $.,.z.~.F.C.G.E. X#X&X=X=XE.z.2XaXaXpXsXsXsXsXsXdXdXsXdXaXsXsXsXsXaXsXsX",
"=X=X&X%X@XOXXXXX.XOX$X&X-X;X>X1X1X3X8X_.,.g.a.r.w.t.e.+.X.] u.G.b.j.J.W.{.$X*X$XXXD.N.rXsXsXaXdXdXsXsXsXdXdXsXdXsXsXsXsXaXaXsXsX",
"=X=X&X$X@XOXoXXX.XoX#X%X-X:X>X<X2X4X6X=X,.r.h.p.y.i.e.%.] +.p.h.c.S.E.!.{.$X=X%X|.c.!.aXaXsXsXdXsXsXsXsXsXdXdXsXsXsXsXaXsXaXsXsX",
"=X*X%X$X#X+XoX.X XOX@X$X*X-X:X>X,X2X4X1Xw.;.g.f.i.y.5.*.@.:.t.r.B.Y.W.F.!.#X*X&X'.p.'.sXpXaXaXsXsXaXsXsXdXsXdXsXsXsXsXaXsXsXsXsX",
"-X*X&X%X$X+XXX X.XOX@X$X&X*X-X;X;X>X<X3Xc.o.i.f.i.6.-.2.3.6.5.w.s.z.z.r.B.XX#X.X!.9.'.sXpXpXpXaXaXsXsXaXdXsXsXdXdXsXsXsXdXsXaXaX",
"=X=X*X$X@X+XXX X.XoXOX@X$X&X=X-X-X;X:X1XW.| 6.d.f.t.2.{ ` { X.+.2.k.B.M.H.|. X).L.0.:XsXpXpXpXaXpXsXsXaXsXsXaXdXsXsXaXsXdXdXsXsX",
"=X*X&X$X@X+XoX.X|. X.XXXOX#X%X&X*X*X=X;X$X:.=.w.h.c.q.#.%.2.e.d.Z.E.Q.W.^.[.'./.h.C.iXpXiXpXpXaXpXsXaXaXsXsXsXsXaXsXaXsXaXsXdXdX",
"*X&X%X#X@X+X.X|.}.[.{. XXXXXOX@X#X#X%X*X-Xn.' >.y.x.w.2.r.a.r.f.F.R.Q.~._.|.{.T.7.@XpXuXyXuXpXpXaXaXpXsXsXsXsXaXaXsXsXsXsXsXsXsX",
"*X%X$X#X+XOXXX}.[.].].].}.}.}. X.X X.XOX#X}.*.o.r.s.w.8.u.y.9.t.A.Y.E.R.Q.{./.d.V.wXuXtXyXuXiXiXpXaXpXsXsXaXaXaXaXsXaXaXsXsXsXaX",
"%X#X@X+XoXXX|.{.[.'.`._.`._.`.'.].[.[.[.|..XJ.' %.w.6.2.9.5.8.c.J.T.I.S.v.N.a.7.,XwXrXrXtXuXiXiXuXiXpXaXsXaXaXaXaXsXpXaXaXaXaXsX",
"#X@X+XoXXX|.}.[.].'.`.)./.~.^./.^.^././.(.).'.5.D O.O._ <.7.i.m.K.E.I.p.>.X.X.].0XqXwXeXrXtXyXuXuXiXpXpXaXpXaXaXaXaXaXpXaXaXaXaX",
"OXOXoXXX X|.[.'._.)./.^.Q.Q.W.R.R.R.T.Y.Y.T.Q.B.T M K Z ! *.q.g.d.h.3.~ ^ ~ U.6X,X*X:XqXrXeXrXyXuXuXuXiXaXpXaXaXaXsXaXpXaXaXsXsX",
"XX.X|.}.{.].`._./.^.~.Q.W.W.R.Y.Y.Y.P.L.P.P.P.C.6.K c z c J ! ' ' Q A N E V.3X3XXXc.+.3.{.wXuXyXyXuXyXyXiXpXpXaXaXsXsXaXaXpXsXdX",
"|.}.{.].`.`._./.~.Q.W.R.Y.U.I.P.L.J.K.J.M.x.m.z.h.e._ B z v B m Z V J @.L.1X5X1X-XoXG.K A 8.K.oXwXiXpXuXiXpXpXpXpXaXaXsXpXpXpXsX",
"[.[.[.'.).(./.!.Q.W.R.Y.I.P.L.P.K.G.h.<.4.s.h.h.g.h.s.3.O.X.{  .1.a.P.@X3X2X2X,X>X%X X2.s k M H =.A.&XtXaXiXaXiXpXaXiXaXaXpXaXsX",
"].].`.(./.~.Q.!.E.T.Y.I.L.K.G.v.4./ L 8.z.h.h.d.s.k.x.c.v.N.D.T.[.$X>X3X5X2X<X<X,X&X[.3.f h z z z n T 0.`.0XsXaXiXpXaXpXpXaXaXaX",
"`._.)././.Q.E.E.T.I.P.L.D.y._ B g p ) g.g.g.f.a.a.j.b.N.Z.U.)..X&X<X3X4X4X3X<X1X:X@XE.} a g j j j l z x F &.G.;XiXsXaXaXpXaXaXpX",
"`.(.(.~.!.W.R.U.U.U.G.i.) c f g g s ^ q.} t.d.p.d.k.v.A.K.R.'.+X-X<X2X4X5X3X3X,X&X[.m.G s j j j g g g j l l N ` s.+XiXpXsXpXiXaX",
"(././.Q.Q.W.R.U.C.9.^ c f h g g g s G q.=.u.s.a.h.v.n.Z.R.).}.@X-X<X2X4X5X3X2X*X[.Y.5.k g k j j h g f g j h l n S ` x.*XaXaXiXaX",
"^.^.!.Q.R.T.D.>.F j d g g g g f f d j -.k.f.d.g.z.V.A.C.E.|.oX$X;X>X1X5X5X1X;X{.Y.m.R a k x l j g g g g h g k x c V P %.Y.rXpXaX",
"^.!.Q.E.I.u.U g f g h g g g f f f f a L d.l.l.z.x.N.G.D.T.XX$X$X*X=X<X5X,X%X|.Y.F.:.h g x n l h h h g f j j l z z b B L ` b.tXaX",
"!.Q.Q.J.$.c d g g g h h h h f f g g d f $.b.c.x.x.c.C.F.I. X*X&X$X$X>X>X#X{.~.U.i.m d l l m z k l k f f h z v z c c M D G ~ XXsX",
"W.W.A.( g f h h g g h h g g g f g g g s n q.Z.B.n.M.A.J.W.|.$X@X.X.X@XOX|.`./.k.S s l l j n v k l k h d g c M z b n M A D F y.tX",
"E.J./ d g g g h g g g h g g g g f g f f a C y.F.A.G.U.!.[.oXoX.X[.[.{.{.[.).s.A a x b l h m m l x l h d g n B k c n n V V J / !.",
"W.7.h f f g g h g g g g h h h j g g g g f a B 7.D.U.Q.).}. X}.{.].[.[.(.D.%.x d l b M l g M B l l k j f f v V j z M M m n G J X.",
"M.H d g g g g h h h g g j h g g g h g g g f s z } c.R._.|.}.}.[._.T.x.$.A s g c x v m x h n B l x l j g d l C k j M M b m P U B ",
",.g g g h f g j j j f f k h g g g h h h g f g f a M ( ,.s.h.i.4...P c s g x v k j v v l g c C z c l z k d g C c g M m n N J K n ",
"G h g f h f g j j j f g k j h h g h j h g h h j g s a a f h f s s d j z c b c k h N n l h c Z x x l c l f d b M f N M m C Z G c ",
"g j g f h g h z z z f f k z k k h j j g g g h h g g j k l k x x x z l x b c x l k B m x h x S v z x z j f d k M d N B N b C H c ",
"f g j f k g j c z z g d k x j j j j j h g g h h h h k k z z l x l k j x c l z l z n b x h x D v l c l g g g f n g m D A x A S v ",
"f g j f h f k c k l g d k k k k h g j h h h j h h j j h k k l z l l k b c x c l x N M c k x A b z c z h j l d x k z H M k D C v ",
"f h g g h f k b l j g d h k l k h j k h h j k j h j j h j k z z z z l c x z z k c B n x k x F M k x c j l b h h z k J x x G B x ",
"f g g h k f j n x h f d g k k j g g j j j h j j j l k j k k z z l x x c v c l l b B M c j k C B z x x j z n c s z x G j b F V x "
};
