/* XPM */
static char *player_2[] = {
/* columns rows colors chars-per-pixel */
"64 64 138 2 ",
"   c #020101",
".  c #060403",
"X  c #0A0705",
"o  c #0E0505",
"O  c #0D0B08",
"+  c #0E0A08",
"@  c #0F0C0A",
"#  c #110807",
"$  c #110E0B",
"%  c #170D0B",
"&  c #190F0C",
"*  c #14110D",
"=  c #16120E",
"-  c #18140F",
";  c #963131",
":  c #983131",
">  c #983232",
",  c #993232",
"<  c #993333",
"1  c #9A3232",
"2  c #993433",
"3  c #9A3534",
"4  c #9A3635",
"5  c #9B3735",
"6  c #9B3736",
"7  c #9C3735",
"8  c #9B3836",
"9  c #9B3937",
"0  c #9C3836",
"q  c #9C3936",
"w  c #9D3937",
"e  c #94363B",
"r  c #95363C",
"t  c #9C3A38",
"y  c #9D3A38",
"u  c #9D3B38",
"i  c #9D3B39",
"p  c #9F3D3A",
"a  c #A12F2F",
"s  c #A22F2F",
"d  c #A1302F",
"f  c #A93232",
"g  c #AA3232",
"h  c #AB3232",
"j  c #AC3131",
"k  c #AC3232",
"l  c #AD3735",
"z  c #AE3735",
"x  c #AE3736",
"c  c #AE3836",
"v  c #AE3936",
"b  c #A5363B",
"n  c #A6363C",
"m  c #A7363C",
"M  c #A8373B",
"N  c #A8373C",
"B  c #A13F3B",
"V  c #AF3A38",
"C  c #AF3B38",
"Z  c #CF9873",
"A  c #D29471",
"S  c #D39772",
"D  c #D49472",
"F  c #D49773",
"G  c #D19A74",
"H  c #D39B75",
"J  c #D49974",
"K  c #D59974",
"L  c #D59975",
"P  c #D59A75",
"I  c #D69A75",
"U  c #D79B75",
"Y  c #D69B76",
"T  c #D69C76",
"R  c #D69D77",
"E  c #D79E78",
"W  c #D19B7C",
"Q  c #D99F78",
"!  c #D3A07F",
"~  c #D8A079",
"^  c #D9A079",
"/  c #D9A17A",
"(  c #DAA17A",
")  c #DAA27A",
"_  c #DAA27B",
"`  c #3B66FE",
"'  c #3B66FF",
"]  c #3D69FF",
"[  c #3F85F5",
"{  c #3B89FF",
"}  c #3C8AFF",
"|  c #3D8AFF",
" . c #4085F5",
".. c #4887F0",
"X. c #438CFA",
"o. c #5F99FF",
"O. c #6C96EE",
"+. c #6696F5",
"@. c #6198FF",
"#. c #609AFF",
"$. c #619AFF",
"%. c #629AFE",
"&. c #629BFE",
"*. c #639BFE",
"=. c #639BFF",
"-. c #699BF9",
";. c #DAAE8A",
":. c #DDAF8B",
">. c #DFB690",
",. c #DFB790",
"<. c #E4B28E",
"1. c #E3B590",
"2. c #E0B791",
"3. c #E7B791",
"4. c #E1B891",
"5. c #E1B992",
"6. c #E5BB94",
"7. c #E5BC94",
"8. c #E8B993",
"9. c #E8BA93",
"0. c #E9BA93",
"q. c #E9BB94",
"w. c #EABB94",
"e. c #EABC95",
"r. c #EABD96",
"t. c #EBBD96",
"y. c #E8BE96",
"u. c #ECBE97",
"i. c #ECBF97",
"p. c #E1B999",
"a. c #E5C09F",
"s. c #EDC098",
"d. c #EDC198",
"f. c #EDC299",
"g. c #EDC29A",
"h. c #EEC29A",
"j. c #EEC39A",
"k. c None",
/* pixels */
"k.k.k.k.k.k.k.k.k.k.k.k.k.k.k.k.k.k.k.k.k.k.k.k.k.k.k.k.k.k.k.k.k.k.k.k.k.k.k.k.k.k.k.k.k.k.k.k.k.k.k.k.k.k.k.k.k.k.k.k.k.k.k.k.",
"k.k.k.k.k.k.k.k.k.k.k.k.k.k.k.k.k.k.k.k.k.k.k.k.k.k.k.k.k.k.k.k.k.k.k.k.k.k.k.k.k.k.k.k.k.k.k.k.k.k.k.k.k.k.k.k.k.k.k.k.k.k.k.k.",
"k.k.k.k.k.k.k.k.k.k.k.k.k.k.k.k.k.k.k.k.k.k.k.k.k.k.k.k.k.k.k.k.k.k.k.k.k.k.k.k.k.k.k.k.k.k.k.k.k.k.k.k.k.k.k.k.k.k.k.k.k.k.k.k.",
"k.k.k.k.k.k.k.k.k.k.k.k.k.k.k.k.k.k.k.k.k.k.k.k.k.k.k.k.k.k.k.k.k.k.k.k.k.k.k.k.k.k.k.k.k.k.k.k.k.k.k.k.k.k.k.k.k.k.k.k.k.k.k.k.",
"k.k.k.k.k.k.k.k.k.k.k.k.k.k.k.k.k.k.k.k.k.k.k.k.k.k.k.k.k.k.> > : > > > k.k.k.k.k.k.k.k.k.k.k.k.k.k.k.k.k.k.k.k.k.k.k.k.k.k.k.k.",
"k.k.k.k.k.k.k.k.k.k.k.k.k.k.k.k.k.k.k.k.k.k.k.k.k.k.k.k.k.k.> > > > , , k.k.k.k.k.k.k.k.k.k.k.k.k.k.k.k.k.k.k.k.k.k.k.k.k.k.k.k.",
"k.k.k.k.k.k.k.k.k.k.k.k.k.k.k.k.k.k.k.k.k.k.k.k.k.k.k.k.> > > > > , g h k k k.k.k.k.k.k.k.k.k.k.k.k.k.k.k.k.k.k.k.k.k.k.k.k.k.k.",
"k.k.k.k.k.k.k.k.k.k.k.k.k.k.k.k.k.k.k.k.k.k.k.k.k.k.k.k.> > > > 5 7 l z z x k.k.k.k.k.k.k.k.k.k.k.k.k.k.k.k.k.k.k.k.k.k.k.k.k.k.",
"k.k.k.k.k.k.k.k.k.k.k.k.k.k.k.k.k.k.k.k.k.k.k.k.k.k.> > > > > > P Y I U U D c k k.k.k.k.k.k.k.k.k.k.k.k.k.k.k.k.k.k.k.k.k.k.k.k.",
"k.k.k.k.k.k.k.k.k.k.k.k.k.k.k.k.k.k.k.k.k.k.k.k.k.k.> > < < ; ; ^ ^ ^ ^ R S v k k.k.k.k.k.k.k.k.k.k.k.k.k.k.k.k.k.k.k.k.k.k.k.k.",
"k.k.k.k.k.k.k.k.k.k.k.k.k.k.k.k.k.k.k.k.k.k.k.k.k.k.> 0 F Z X   ^ ) d.>.$ o a k k.k.k.k.k.k.k.k.k.k.k.k.k.k.k.k.k.k.k.k.k.k.k.k.",
"k.k.k.k.k.k.k.k.k.k.k.k.k.k.k.k.k.k.k.k.k.k.k.k.k.k.> q P G + . / _ d.2.* # a k k.k.k.k.k.k.k.k.k.k.k.k.k.k.k.k.k.k.k.k.k.k.k.k.",
"k.k.k.k.k.k.k.k.k.k.k.k.k.k.k.k.k.k.k.k.k.k.k.k.k.k.> 0 K Q H H f.f.j.h.y.1.C k k.k.k.k.k.k.k.k.k.k.k.k.k.k.k.k.k.k.k.k.k.k.k.k.",
"k.k.k.k.k.k.k.k.k.k.k.k.k.k.k.k.k.k.k.k.k.k.k.k.k.k.> 0 K ^ _ ) j.g.5.4.4.:.V k k.k.k.k.k.k.k.k.k.k.k.k.k.k.k.k.k.k.k.k.k.k.k.k.",
"k.k.k.k.k.k.k.k.k.k.k.k.k.k.k.k.k.k.k.k.k.k.k.k.k.k.> 0 L ( i.s.j.6.= O O % s k k.k.k.k.k.k.k.k.k.k.k.k.k.k.k.k.k.k.k.k.k.k.k.k.",
"k.k.k.k.k.k.k.k.k.k.k.k.k.k.k.k.k.k.k.k.k.k.k.k.k.k.> 0 L / d.j.h.7.- @ @ & d g k.k.k.k.k.k.k.k.k.k.k.k.k.k.k.k.k.k.k.k.k.k.k.k.",
"k.k.k.k.k.k.k.k.k.k.k.k.k.k.k.k.k.k.k.k.k.k.k.k.k.k.> 0 L ( d.j.h.f.,.>.>.;.y , k.k.k.k.k.k.k.k.k.k.k.k.k.k.k.k.k.k.k.k.k.k.k.k.",
"k.k.k.k.k.k.k.k.k.k.k.k.k.k.k.k.k.k.k.k.k.k.k.k.k.k.> 8 A T d.j.j.g.w.q.q.<.y > k.k.k.k.k.k.k.k.k.k.k.k.k.k.k.k.k.k.k.k.k.k.k.k.",
"k.k.k.k.k.k.k.k.k.k.k.k.k.k.k.k.k.k.k.k.k.k.k.k.k.k.> > 8 p t.j.j.r.B y t w > > k.k.k.k.k.k.k.k.k.k.k.k.k.k.k.k.k.k.k.k.k.k.k.k.",
"k.k.k.k.k.k.k.k.k.k.k.k.k.k.k.k.k.k.k.k.k.k.k.k.k.k.> > > 8 9.u.u.8.6 > , > > > k.k.k.k.k.k.k.k.k.k.k.k.k.k.k.k.k.k.k.k.k.k.k.k.",
"k.k.k.k.k.k.k.k.k.k.k.k.k.k.k.k.k.k.k.k.k.k.k.k.> > > > > > 3 4 4 4 > , g k h k k.k.k.k.k.k.k.k.k.k.k.k.k.k.k.k.k.k.k.k.k.k.k.k.",
"k.k.k.k.k.k.k.k.k.k.k.k.k.k.k.k.k.k.k.k.k.k.k.k.> > > > > > > > > > > , h k k k k.k.k.k.k.k.k.k.k.k.k.k.k.k.k.k.k.k.k.k.k.k.k.k.",
"k.k.k.k.k.k.k.k.k.k.k.k.k.k.k.k.k.k.k.k.k.k.k.k.> > > : > > > > k k j k k k j h , > k.k.k.k.k.k.k.k.k.k.k.k.k.k.k.k.k.k.k.k.k.k.",
"k.k.k.k.k.k.k.k.k.k.k.k.k.k.k.k.k.k.k.k.k.k.k.k.> > > > > : , , k k k j k k k h , > k.k.k.k.k.k.k.k.k.k.k.k.k.k.k.k.k.k.k.k.k.k.",
"k.k.k.k.k.k.k.k.k.k.k.k.k.k.k.k.k.k.k.k.k.k.> > > > > > > , g h k k k k k k k h , > > > k.k.k.k.k.k.k.k.k.k.k.k.k.k.k.k.k.k.k.k.",
"k.k.k.k.k.k.k.k.k.k.k.k.k.k.k.k.k.k.k.k.k.k.> > > > > > > , h k k k k k k k k h , > > : k.k.k.k.k.k.k.k.k.k.k.k.k.k.k.k.k.k.k.k.",
"k.k.k.k.k.k.k.k.k.k.k.k.k.k.k.k.k.k.k.k.k.k.> > > > > > > , h k k k j k k k k h , > > > k.k.k.k.k.k.k.k.k.k.k.k.k.k.k.k.k.k.k.k.",
"k.k.k.k.k.k.k.k.k.k.k.k.k.k.k.k.k.k.k.k.k.k.> > > > > > , 1 h k k k k k k k k h , > > > k.k.k.k.k.k.k.k.k.k.k.k.k.k.k.k.k.k.k.k.",
"k.k.k.k.k.k.k.k.k.k.k.k.k.k.k.k.k.k.k.k.> > > > > > > , f h k k k k k k k k k h , > > : k.k.k.k.k.k.k.k.k.k.k.k.k.k.k.k.k.k.k.k.",
"k.k.k.k.k.k.k.k.k.k.k.k.k.k.k.k.k.k.k.k.> > > > > > > , h k k k j k k k k k k h , > > > k.k.k.k.k.k.k.k.k.k.k.k.k.k.k.k.k.k.k.k.",
"k.k.k.k.k.k.k.k.k.k.k.k.k.k.k.k.k.k.k.k.> > > > > > > , h k k k k k k j k k k h , > > : k.k.k.k.k.k.k.k.k.k.k.k.k.k.k.k.k.k.k.k.",
"k.k.k.k.k.k.k.k.k.k.k.k.k.k.k.k.k.k.k.k.> > > > > > > , h k k k k k k k k k k h , > > > k.k.k.k.k.k.k.k.k.k.k.k.k.k.k.k.k.k.k.k.",
"k.k.k.k.k.k.k.k.k.k.k.k.k.k.k.k.k.k.k.k.> > : > > > > , h k k k j k j k k k k h , > > : k.k.k.k.k.k.k.k.k.k.k.k.k.k.k.k.k.k.k.k.",
"k.k.k.k.k.k.k.k.k.k.k.k.k.k.k.k.k.k.k.k.> > > > > > > , h k k k k k k k k k k h , > > > k.k.k.k.k.k.k.k.k.k.k.k.k.k.k.k.k.k.k.k.",
"k.k.k.k.k.k.k.k.k.k.k.k.k.k.k.k.k.k.k.k.> > > : > > > , g k k k k k k k k k k h , > > > k.k.k.k.k.k.k.k.k.k.k.k.k.k.k.k.k.k.k.k.",
"k.k.k.k.k.k.k.k.k.k.k.k.k.k.k.k.k.k.k.k.> > > > > : > , h k k k j k k k k k k h , > > : k.k.k.k.k.k.k.k.k.k.k.k.k.k.k.k.k.k.k.k.",
"k.k.k.k.k.k.k.k.k.k.k.k.k.k.k.k.k.k.k.k.> > > > > > > , h k k k h k k k k k k h , > > > k.k.k.k.k.k.k.k.k.k.k.k.k.k.k.k.k.k.k.k.",
"k.k.k.k.k.k.k.k.k.k.k.k.k.k.k.k.k.k.k.k.u u > > > > , 1 g k k k k k k j k k k h , > q q k.k.k.k.k.k.k.k.k.k.k.k.k.k.k.k.k.k.k.k.",
"k.k.k.k.k.k.k.k.k.k.k.k.k.k.k.k.k.k.k.k.0.3.2 > > , f g k k k k k k k k k k k h , 2 F J k.k.k.k.k.k.k.k.k.k.k.k.k.k.k.k.k.k.k.k.",
"k.k.k.k.k.k.k.k.k.k.k.k.k.k.k.k.k.k.k.k.j.s.i 9 e r b n n m m m N N N N N N N M 6 q E ^ k.k.k.k.k.k.k.k.k.k.k.k.k.k.k.k.k.k.k.k.",
"k.k.k.k.k.k.k.k.k.k.k.k.k.k.k.k.k.k.k.k.j.h.e.p...[  . . . . . .+.+.+.+.+.+.+.O.W Y ~ ~ k.k.k.k.k.k.k.k.k.k.k.k.k.k.k.k.k.k.k.k.",
"k.k.k.k.k.k.k.k.k.k.k.k.k.k.k.k.k.k.k.k.j.j.j.a.X.{ { { { { { { =.=.=.=.=.=.=.-.! ^ ^ ^ k.k.k.k.k.k.k.k.k.k.k.k.k.k.k.k.k.k.k.k.",
"k.k.k.k.k.k.k.k.k.k.k.k.k.k.k.k.k.k.k.k.k.k.k.k.{ { { { { } $.%.=.=.=.=.=.=.=.=.k.k.k.k.k.k.k.k.k.k.k.k.k.k.k.k.k.k.k.k.k.k.k.k.",
"k.k.k.k.k.k.k.k.k.k.k.k.k.k.k.k.k.k.k.k.k.k.k.k.{ { { { { } $.=.=.=.*.*.=.=.=.=.k.k.k.k.k.k.k.k.k.k.k.k.k.k.k.k.k.k.k.k.k.k.k.k.",
"k.k.k.k.k.k.k.k.k.k.k.k.k.k.k.k.k.k.k.k.k.k.k.k.k.k.{ { { } $.=.=.=.=.&.=.=.k.k.k.k.k.k.k.k.k.k.k.k.k.k.k.k.k.k.k.k.k.k.k.k.k.k.",
"k.k.k.k.k.k.k.k.k.k.k.k.k.k.k.k.k.k.k.k.k.k.k.k.k.k.{ { { } $.=.=.=.@.@.@.@.k.k.k.k.k.k.k.k.k.k.k.k.k.k.k.k.k.k.k.k.k.k.k.k.k.k.",
"k.k.k.k.k.k.k.k.k.k.k.k.k.k.k.k.k.k.k.k.k.k.k.k.k.k.{ { { { k.k.k.k.] ] ] ] k.k.k.k.k.k.k.k.k.k.k.k.k.k.k.k.k.k.k.k.k.k.k.k.k.k.",
"k.k.k.k.k.k.k.k.k.k.k.k.k.k.k.k.k.k.k.k.k.k.k.k.k.k.{ { { { k.k.k.k.' ' ` ' k.k.k.k.k.k.k.k.k.k.k.k.k.k.k.k.k.k.k.k.k.k.k.k.k.k.",
"k.k.k.k.k.k.k.k.k.k.k.k.k.k.k.k.k.k.k.k.k.k.k.k.k.k.{ { { { k.k.k.k.' ' ' ' k.k.k.k.k.k.k.k.k.k.k.k.k.k.k.k.k.k.k.k.k.k.k.k.k.k.",
"k.k.k.k.k.k.k.k.k.k.k.k.k.k.k.k.k.k.k.k.k.k.k.k.k.k.{ { { { k.k.k.k.' ' ' ' k.k.k.k.k.k.k.k.k.k.k.k.k.k.k.k.k.k.k.k.k.k.k.k.k.k.",
"k.k.k.k.k.k.k.k.k.k.k.k.k.k.k.k.k.k.k.k.k.k.k.k.k.k.{ { { { k.k.k.k.' ' ' ' k.k.k.k.k.k.k.k.k.k.k.k.k.k.k.k.k.k.k.k.k.k.k.k.k.k.",
"k.k.k.k.k.k.k.k.k.k.k.k.k.k.k.k.k.k.k.k.k.k.k.k.k.k.{ { { { k.k.k.k.' ' ' ' k.k.k.k.k.k.k.k.k.k.k.k.k.k.k.k.k.k.k.k.k.k.k.k.k.k.",
"k.k.k.k.k.k.k.k.k.k.k.k.k.k.k.k.k.k.k.k.k.k.k.k.k.k.{ { { { k.k.k.k.' ' ' ' k.k.k.k.k.k.k.k.k.k.k.k.k.k.k.k.k.k.k.k.k.k.k.k.k.k.",
"k.k.k.k.k.k.k.k.k.k.k.k.k.k.k.k.k.k.k.k.k.k.k.k.k.k.{ { { { k.k.k.k.' ' ` ' k.k.k.k.k.k.k.k.k.k.k.k.k.k.k.k.k.k.k.k.k.k.k.k.k.k.",
"k.k.k.k.k.k.k.k.k.k.k.k.k.k.k.k.k.k.k.k.k.k.k.k.k.k.{ { { { k.k.k.k.' ` ` ' k.k.k.k.k.k.k.k.k.k.k.k.k.k.k.k.k.k.k.k.k.k.k.k.k.k.",
"k.k.k.k.k.k.k.k.k.k.k.k.k.k.k.k.k.k.k.k.k.k.k.k.k.k.{ { } | k.k.k.k.' ` ' ' k.k.k.k.k.k.k.k.k.k.k.k.k.k.k.k.k.k.k.k.k.k.k.k.k.k.",
"k.k.k.k.k.k.k.k.k.k.k.k.k.k.k.k.k.k.k.k.k.k.k.k.k.k.{ | o.$.k.k.k.k.' ` ` ' k.k.k.k.k.k.k.k.k.k.k.k.k.k.k.k.k.k.k.k.k.k.k.k.k.k.",
"k.k.k.k.k.k.k.k.k.k.k.k.k.k.k.k.k.k.k.k.k.k.k.k.k.k.{ | #.=.k.k.k.k.' ' ' ' k.k.k.k.k.k.k.k.k.k.k.k.k.k.k.k.k.k.k.k.k.k.k.k.k.k.",
"k.k.k.k.k.k.k.k.k.k.k.k.k.k.k.k.k.k.k.k.k.k.k.k.k.k.{ | #.=.k.k.k.k.' ' ' ' k.k.k.k.k.k.k.k.k.k.k.k.k.k.k.k.k.k.k.k.k.k.k.k.k.k.",
"k.k.k.k.k.k.k.k.k.k.k.k.k.k.k.k.k.k.k.k.k.k.k.k.k.k.{ | #.=.k.k.k.k.' ` ` ' k.k.k.k.k.k.k.k.k.k.k.k.k.k.k.k.k.k.k.k.k.k.k.k.k.k.",
"k.k.k.k.k.k.k.k.k.k.k.k.k.k.k.k.k.k.k.k.k.k.k.k.k.k.{ | #.=.k.k.k.k.' ' ' ' k.k.k.k.k.k.k.k.k.k.k.k.k.k.k.k.k.k.k.k.k.k.k.k.k.k.",
"k.k.k.k.k.k.k.k.k.k.k.k.k.k.k.k.k.k.k.k.k.k.k.k.k.k.{ | #.=.k.k.k.k.' ' ' ' k.k.k.k.k.k.k.k.k.k.k.k.k.k.k.k.k.k.k.k.k.k.k.k.k.k.",
"k.k.k.k.k.k.k.k.k.k.k.k.k.k.k.k.k.k.k.k.k.k.k.k.k.k.{ | #.=.k.k.k.k.' ' ' ' k.k.k.k.k.k.k.k.k.k.k.k.k.k.k.k.k.k.k.k.k.k.k.k.k.k.",
"k.k.k.k.k.k.k.k.k.k.k.k.k.k.k.k.k.k.k.k.k.k.k.k.k.k.{ | #.=.k.k.k.k.' ' ' ' k.k.k.k.k.k.k.k.k.k.k.k.k.k.k.k.k.k.k.k.k.k.k.k.k.k."
};
