/* XPM */
static char *c2002bc25baf4d45b88112f5af95a0f0BiJwKkRxdiEJGX5I[] = {
/* columns rows colors chars-per-pixel */
"64 64 59 1 ",
"  c None",
". c #030404",
"X c #060708",
"o c #07080A",
"O c #0A0B0D",
"+ c #0D0E11",
"@ c #0F1113",
"# c #111315",
"$ c #13161A",
"% c #16191D",
"& c #191B1E",
"* c #171B20",
"= c #1A1D22",
"- c #1E2125",
"; c #1E2329",
": c #212326",
"> c #22252A",
", c #26292D",
"< c #292B2E",
"1 c #262B31",
"2 c #2A2E33",
"3 c #2D3035",
"4 c #2E3339",
"5 c #323336",
"6 c #32363B",
"7 c #35393D",
"8 c #3A3B3D",
"9 c #363A41",
"0 c #3A3E43",
"q c #3D4146",
"w c #3E4349",
"e c #424345",
"r c #42464B",
"t c #45494E",
"y c #4A4B4C",
"u c #474B50",
"i c #4A4D52",
"p c #4E5155",
"a c #525355",
"s c #575857",
"d c #535559",
"f c #56595C",
"g c #5A5B5D",
"h c #5C5E61",
"j c #5E6063",
"k c #626465",
"l c #656668",
"z c #67686A",
"x c #6B6C6D",
"c c #6E6F70",
"v c #6F7070",
"b c #737373",
"n c #787777",
"m c #777877",
"M c #777778",
"N c #777879",
"B c #7B7B7B",
"V c #828282",
"C c gray54",
/* pixels */
"    $$$$&%# O++++++@@$++   oo@#O.X.OO#OX   .o+++@@@@@@@@+o      ",
"  4qu00rre3$=;;>1144444>= %%,55*=>&$26,#O  @=13449696656,*      ",
" 4icBchuut6=;344900wwwuu8-=2tay:0tq<0r02%O+=49wriiuiutrw2=$$ $  ",
"$0xNMbkdtr6-399wruidhhhzg8,plxg5dlgqiir01+$4wruidpppffiw4=*12>% ",
"$tcbbbchur6;90tuifhkkxxzzr5gvbl5ihddhdiw5==wuiglzzlllkdr2,ekf9> ",
"#rxczkhduq2,0uiifjhjxmmvxe3phkkyysdhdpir6-,uflxxbbccccki3:exlu1 ",
"#6djhdppr3;6uiihhhfglxbbxy:yhkxljgputuiu6=,plbxxcbcbbnxy:#5jgw=X",
"O>0ipii03&=9tuuipifkzvmmvy&5hcczlghhhhiw1&2dxbxxccbnVns6::>qr2%.",
"O%<0tr8,&$-8tudfsghvmBVmz8%-elvkllxxzjw1==1fmvzbnnVBcy2163>-,==O",
"O$=6073,>-&3upjvvxhzbBBba-$$&ekzbmvkd0,%$*>rbBmBBnzs8&>9wq9,;>1+",
"O$-20riayq<>0ijBBmkkzbml5#%&#:ehbmxp9;;;*$*1pzvxjy<=&<euiutw062+",
".$:<egxmNbg8<9pNVVvzbBbe--46<-:qggp6;1441=$--<84<<<=:8iapppuw92+",
".#,56ekBCVmk8=7sBCCBBvw;,4wwq5<<<572444941%$=;26676,7skkhhdt094+",
"O>0idregvvkjp:%,ivBbs3>27qwie5tppyw0999941-,7qwwr062svbcbkpwwu9+",
"+4pcbkyrpfppy7%-=<33,4qwwwtt8ekzjpq099991>6ruutuu01yxbbbzdtuiiq@",
"+0zxkhpqrpuiiq&&&%-48wttttpw8knbjirw9ww414uiuutut72kbbbxfidhht0@",
"+9dppi00uuiiiw>,4>>7wtiiyiprexBvhiuttur419uuutttr48xmbldtahkgt9@",
"o=26926ruiiiuw,;6,;9ippdgghsavnxdiiiidr210iutrwq06yvbxjdpiauiu6O",
"o$><28ruuuuut9;;61;qipgzxxvxjxbxiiidjzs610utrridjs8xbxhshzkgjt>X",
"+$3qrtuipiutq1*,64-qifjzxvbxkbbzddfkxbje2eddhcbnBxyekxklxccka5$ ",
"@$>9rtuttrw93;;494>7ufzzzvvxzvBxkzxcbbzy7ylxbbnnmbkteesjlcbxy=  ",
" *$=1590763,;30w0939ufzvvvmmvjVbccbcvbxs0yccbbbbcbblar855yy8:#  ",
"  =****=;>149ruuw947tjvbmBVBs8lVVBBBnnvs58xxxbvzxvbxxky<&:-=$$$ ",
"    ***=<6qtiuuuw996rkNBBbjy<-7gkllkgae<&5lcvbxkxbbcbba>$==;==%O",
"     -;4ripipiptw909qyfgae5,;1;2556688:&%<gmbbbxvbbBmz8;>2111>>O",
"     *<raddfdfdu0wwuq84,=:38q9642240ikg8:-rbBBnnbBBBkq,16794191+",
"    :>7ahjklljfuwudptr7:;6qwuwwwtuhcnBBxe:2abBBBBBvs5:290094494+",
"   ,65egzvbbbzfipdhdppq<4wuuuuiiikbnbzxnxe,27yjjhy5=$<9www99994+",
"  =4w9elBVVNbzpphxzhhze5tuiiiuipjbbclajcms297331<24>,9wwuw9wwu9+",
" $>0ur0sBVBmvkdkvbbbBBr7piitttwpkxcxzgkcmh6wtrwq087:4wuuuwqwuw9@",
".*4tidryzbbbxkkcvbBBVvq8tttwq9qwphxbxkkkxg7wuppiur4>wuuiuwwiuu0@",
"O>0uphjyyxbbvxvbvMNVBu:5wq776qwpglcxdtisvg6wdjzjpu53wwuiwwtiuw4+",
"@1ridkxhegnbnvcxnVVb8=$:19990rpzccbzu0rjbd5rhcbxhu210tuuuuppir4+",
"$6tttsxxaybBcbvnVBj5:%@-490rrupkzkjfiruhxy5uhcczdr22rtuuigkhd04+",
"$9rrugxbxyynBVCVk8::07:-6rtuuipshjhhpurdd99albzhu0220uiuhxxhdr4+",
"+4rtufzcbkyyssy55<:6dg5%2uiiiipkcbMbjpide4rgxhfprw5>9uipjcckht> ",
"o2wrrszccxksay5:3613ss3=1qiiiipzbvnnchhu57dzkddspt6*:7rilnnzy<$ ",
"O=0tugcccccxxje:765>332666tiiiikvkzbvhr,,ykczkjghu<*==<57qe83:$o",
"+*1rygcnccxxBze8dpr5120t0230rryhkppay8>*=7knnnvki3&==>56654222&.",
" ==9yaxnbczcBj8yxzhfapii9:=>256qe5572==;&<ejnnjy01&=1euutr0096>X",
" ;*10ukBnxxbNd5szcbbxjdu7==<5707578qq3:=,eyeadrqe7:,uhhputtw061.",
"  *=4wdvBcnBk08lxcbbchpi7<3ruiiiiiupay7:7kxsrrtit7,yzclhatttr91o",
"  ;*=6ulbnBxr8sbbnNbldpi88shdiiiiuipgzs8ybvzhutur6<jbbxkfpitr01o",
"  ;;*,9plbj8,ybBBnbzhdpiqezbzhdiiipfzxsyknnbji0ww63lbbckfiiur01o",
"   ;2127te<@&sBBclhhdpii8exbbckdippdzzyybVVBvgt0946zbbckhpitrr2X",
"  ;4wr8<21-##5lxljhdppir8ybxcccdpupdzzysnBBBbxsr96<kbcxzhpputw,X",
" %10tuiiuuq2&#ekhfpiur032sbckjjduippjsygxxnnbvzyr6,acbbzhiiut0=X",
"o-6tuppddayq5=%5qeq06,=*<aBczzjpuiidzpegxxvbnbzsu038xbbzhdpit6$.",
"+1wupjxbMxhu04*@&*$#OO+$=tnljjjiiidjny8azcvbbbzdir6,anbxjapu02$ ",
"+4rihcbmbcldw91%**$><,=$$8bxxczdiidhby5edfhkkhfit0918znxksiu9=$ ",
"#9uihlkjhhdpuw6,$$199444<8xnbczaiiflxy,5ruiiiuuw996,&yxbkau02$= ",
"+9uipdiurrriuw91#-60q44taesVblhiiiaay<#$:,390099999==:8hhpr6;*  ",
"O6titq99990wuu94$10tt940se8jjautw92>2eyss8&$=,26491$=,15909>%   ",
"O<rir99999wwiu94*1tdhhw9is8<<>>:=%<ydzBbli5&#%&***$<qr051>>*@*  ",
"O=qitrwwwiddiu94=1ihbbpwahu<$&**&&szzzcldpe1$*&$$$:slka96641=$= ",
" $6tiiidjvzjpw94*1ijbMhihkd2$->;:<ggdddapir6=*=>>$ebnjr8tdpw1%$ ",
" $;0uiuhbVNjiw91$=akkxjhclt,$;==%:7ryitruww4=$<e0:anbg0rfhkd9>@ ",
"  $10uudxbjfwq9>#&izlxcbvh5&$=>=:,>2yptq99w9=*rfr<snmgtahhjkt2$ ",
"  $=9wtihjdw991$&*8xbnnbh9=&2ya0er6=7tt01491=,du0,pnbkiihhhki1* ",
"   $;90wuiwq9>*$==,gbnxi9==exVBg094>:0u0941>=6uw6,8bbjdiahkkw>= ",
"    $;190w93=$$=&&=<qr6<*$0bbbxgw992$<00944=$4r94*=gxkhiigzkw>= ",
"    @*=111;$@*;;8%==$*$$@=ekdpitur02$$>341;%#<62>@@qggaaghdd9;  ",
"     @@@@@+$=  *5$      *&200000961-@O@#%$@+  +@+@##&<<5yr4,**  ",
"      ....Xo   X.X       XO@@O+++OOX.         ... XX....XX...   "
};
